<?xml version='1.0' encoding='UTF-8' standalone='no'?>
<!-- Created with Fritzing (http://www.fritzing.org/) -->
<svg xmlns="http://www.w3.org/2000/svg" width="4.9687in" x="0in" version="1.2" y="0in"  height="3.31648in" viewBox="0 0 357.746 238.786" baseProfile="tiny" xmlns:svg="http://www.w3.org/2000/svg">
 <g transform="matrix(-1, 0, 0, 1, 357.746, 0)">
  <g partID="41170">
   <g  id="board">
    <rect width="357.169" x="0.816378" y="0.816378" fill="none"  height="238.21" stroke="black" fill-opacity="0.5" id="boardoutline" stroke-width="0.5"/>
   </g>
  </g>
  <g partID="49820">
   <g transform="translate(70.5715,29.4715)">
    <g gorn="0.3.0"  id="copper0" stroke-width="0">
     <circle fill="black" cx="110.324" gorn="0.3.0.0"  cy="68.4" connectorname="GNDT" stroke="black" r="1.872" id="connector8pad" stroke-width="1.584"/>
     <rect width="3.74401" x="108.452" y="66.528" fill="black"  height="3.744" stroke="black" stroke-width="1.584"/>
     <circle fill="black" cx="110.324" gorn="0.3.0.2"  cy="61.2" connectorname="CP" stroke="black" r="1.872" id="connector9pad" stroke-width="1.584"/>
     <circle fill="black" cx="110.324" gorn="0.3.0.3"  cy="54" connectorname="ANT2" stroke="black" r="1.872" id="connector10pad" stroke-width="1.584"/>
     <circle fill="black" cx="110.324" gorn="0.3.0.4"  cy="46.8" connectorname="ANT1" stroke="black" r="1.872" id="connector11pad" stroke-width="1.584"/>
     <circle fill="black" cx="110.324" gorn="0.3.0.5"  cy="39.6" connectorname="TX-O-RS232" stroke="black" r="1.872" id="connector12pad" stroke-width="1.584"/>
     <circle fill="black" cx="110.324" gorn="0.3.0.6"  cy="32.4" connectorname="TX-O" stroke="black" r="1.872" id="connector13pad" stroke-width="1.584"/>
     <circle fill="black" cx="110.324" gorn="0.3.0.7"  cy="25.2" connectorname="GND" stroke="black" r="1.872" id="connector14pad" stroke-width="1.584"/>
     <circle fill="black" cx="110.324" gorn="0.3.0.8"  cy="18" connectorname="VCC" stroke="black" r="1.872" id="connector15pad" stroke-width="1.584"/>
    </g>
   </g>
  </g>
  <g partID="44300">
   <g transform="translate(90.1757,174.192)">
    <g transform="matrix(0,-1,1,0,0,0)">
     <g  id="copper0" stroke-width="0">
      <rect width="3.96" x="2.34" y="2.34" fill="black"  height="3.96" stroke="black" stroke-width="2.16"/>
      <circle fill="black" cx="4.32"  cy="4.32" stroke="black" id="connector0pin" r="1.98" stroke-width="2.16"/>
      <circle fill="black" cx="25.92"  cy="4.32" stroke="black" id="connector27pin" r="1.98" stroke-width="2.16"/>
      <circle fill="black" cx="4.32"  cy="11.52" stroke="black" id="connector1pin" r="1.98" stroke-width="2.16"/>
      <circle fill="black" cx="25.92"  cy="11.52" stroke="black" id="connector26pin" r="1.98" stroke-width="2.16"/>
      <circle fill="black" cx="4.32"  cy="18.72" stroke="black" id="connector2pin" r="1.98" stroke-width="2.16"/>
      <circle fill="black" cx="25.92"  cy="18.72" stroke="black" id="connector25pin" r="1.98" stroke-width="2.16"/>
      <circle fill="black" cx="4.32"  cy="25.92" stroke="black" id="connector3pin" r="1.98" stroke-width="2.16"/>
      <circle fill="black" cx="25.92"  cy="25.92" stroke="black" id="connector24pin" r="1.98" stroke-width="2.16"/>
      <circle fill="black" cx="4.32"  cy="33.12" stroke="black" id="connector4pin" r="1.98" stroke-width="2.16"/>
      <circle fill="black" cx="25.92"  cy="33.12" stroke="black" id="connector23pin" r="1.98" stroke-width="2.16"/>
      <circle fill="black" cx="4.32"  cy="40.32" stroke="black" id="connector5pin" r="1.98" stroke-width="2.16"/>
      <circle fill="black" cx="25.92"  cy="40.32" stroke="black" id="connector22pin" r="1.98" stroke-width="2.16"/>
      <circle fill="black" cx="4.32"  cy="47.52" stroke="black" id="connector6pin" r="1.98" stroke-width="2.16"/>
      <circle fill="black" cx="25.92"  cy="47.52" stroke="black" id="connector21pin" r="1.98" stroke-width="2.16"/>
      <circle fill="black" cx="4.32"  cy="54.72" stroke="black" id="connector7pin" r="1.98" stroke-width="2.16"/>
      <circle fill="black" cx="25.92"  cy="54.72" stroke="black" id="connector20pin" r="1.98" stroke-width="2.16"/>
      <circle fill="black" cx="4.32"  cy="61.92" stroke="black" id="connector8pin" r="1.98" stroke-width="2.16"/>
      <circle fill="black" cx="25.92"  cy="61.92" stroke="black" id="connector19pin" r="1.98" stroke-width="2.16"/>
      <circle fill="black" cx="4.32"  cy="69.12" stroke="black" id="connector9pin" r="1.98" stroke-width="2.16"/>
      <circle fill="black" cx="25.92"  cy="69.12" stroke="black" id="connector18pin" r="1.98" stroke-width="2.16"/>
      <circle fill="black" cx="4.32"  cy="76.32" stroke="black" id="connector10pin" r="1.98" stroke-width="2.16"/>
      <circle fill="black" cx="25.92"  cy="76.32" stroke="black" id="connector17pin" r="1.98" stroke-width="2.16"/>
      <circle fill="black" cx="4.32"  cy="83.52" stroke="black" id="connector11pin" r="1.98" stroke-width="2.16"/>
      <circle fill="black" cx="25.92"  cy="83.52" stroke="black" id="connector16pin" r="1.98" stroke-width="2.16"/>
      <circle fill="black" cx="4.32"  cy="90.72" stroke="black" id="connector12pin" r="1.98" stroke-width="2.16"/>
      <circle fill="black" cx="25.92"  cy="90.72" stroke="black" id="connector15pin" r="1.98" stroke-width="2.16"/>
      <circle fill="black" cx="4.32"  cy="97.92" stroke="black" id="connector13pin" r="1.98" stroke-width="2.16"/>
      <circle fill="black" cx="25.92"  cy="97.92" stroke="black" id="connector14pin" r="1.98" stroke-width="2.16"/>
     </g>
    </g>
   </g>
  </g>
  <g partID="44660">
   <g transform="translate(118.796,223.368)">
    <g transform="matrix(-1,0,0,-1,0,0)">
     <g  id="copper0">
      <g  id="copper1">
       <!-- <rect width="55" x="10" y="15.5" fill="none" height="55" stroke="rgb(255, 191, 0)" stroke-width="20" />  -->
       <circle fill="black" cx="2.7"  cy="3.096" stroke="black" r="1.98" id="connector0pin" stroke-width="2.16"/>
       <circle fill="black" cx="31.5"  cy="3.096" stroke="black" r="1.98" id="connector1pin" stroke-width="2.16"/>
      </g>
     </g>
    </g>
   </g>
  </g>
  <g partID="44420">
   <g transform="translate(76.7837,209.184)">
    <g transform="matrix(0,-1,1,0,0,0)">
     <g  id="copper0">
      <rect width="5.184" x="0.72" y="0.72" fill="black"  height="5.184" stroke="black" id="rect20" stroke-width="2.16"/>
      <circle fill="black" cx="3.312"  cy="3.312" stroke="black" id="connector0pin" r="2.592" stroke-width="2.16"/>
      <circle fill="black" cx="24.912"  cy="3.312" stroke="black" id="connector1pin" r="2.592" stroke-width="2.16"/>
     </g>
    </g>
   </g>
  </g>
  <g partID="45320">
   <g transform="translate(156.416,217.392)">
    <g  id="copper0">
     <g  id="copper1">
      <circle fill="black" cx="2.88"  cy="2.88" stroke="black" id="connector0pin" r="1.8" stroke-width="2.16"/>
      <circle fill="black" cx="10.0933"  cy="2.88" stroke="black" id="connector1pin" r="1.8" stroke-width="2.16"/>
     </g>
    </g>
   </g>
  </g>
  <g partID="45300">
   <g transform="translate(134.816,217.392)">
    <g  id="copper0">
     <g  id="copper1">
      <circle fill="black" cx="2.88"  cy="2.88" stroke="black" id="connector0pin" r="1.8" stroke-width="2.16"/>
      <circle fill="black" cx="10.0933"  cy="2.88" stroke="black" id="connector1pin" r="1.8" stroke-width="2.16"/>
     </g>
    </g>
   </g>
  </g>
  <g partID="45950">
   <g transform="translate(167.941,205.758)">
    <g transform="matrix(-1,0,0,-1,0,0)">
     <g  id="copper0">
      <g  id="copper1">
       <circle fill="black" cx="22.5479"  cy="7.08448" stroke="black" id="connector1pin" r="1.84465" stroke-width="2.13732"/>
       <circle fill="black" cx="8.64567"  cy="7.08661" stroke="black" id="connector0pin" r="1.84252" stroke-width="2.13732"/>
      </g>
     </g>
    </g>
   </g>
  </g>
  <g partID="47570">
   <g transform="translate(298.112,133.296)">
    <g transform="matrix(0,1,-1,0,0,0)">
     <g  id="copper0">
      <circle fill="black" cx="7.776"  cy="52.416" connectorname="IN" stroke="black" id="connector1pad" r="1.8" stroke-width="1.44"/>
      <path fill="black"  stroke="black" stroke-width="0.72" d="m7.776,48.096a2.16,2.16,0,0,1,2.16,2.16l0,4.32a2.16,2.16,0,0,1,-2.16,2.16l0,0a2.16,2.16,0,0,1,-2.16,-2.16l0,-4.32a2.16,2.16,0,0,1,2.16,-2.16l0,0zM6.336,52.416a1.44,1.44,0,1,0,2.88,0,1.44,1.44,0,1,0,-2.88,0z"/>
      <circle fill="black" cx="14.976"  cy="52.416" connectorname="GND" stroke="black" id="connector0pad" r="1.8" stroke-width="1.44"/>
      <path fill="black"  stroke="black" stroke-width="0.72" d="m14.976,48.096a2.16,2.16,0,0,1,2.16,2.16l0,4.32a2.16,2.16,0,0,1,-2.16,2.16l0,0a2.16,2.16,0,0,1,-2.16,-2.16l0,-4.32a2.16,2.16,0,0,1,2.16,-2.16l0,0zM13.536,52.416a1.44,1.44,0,1,0,2.88,0,1.44,1.44,0,1,0,-2.88,0z"/>
      <circle fill="black" cx="22.176"  cy="52.416" connectorname="OUT" stroke="black" id="connector2pad" r="1.8" stroke-width="1.44"/>
      <path fill="black"  stroke="black" stroke-width="0.72" d="m22.176,48.096a2.16,2.16,0,0,1,2.16,2.16l0,4.32a2.16,2.16,0,0,1,-2.16,2.16l0,0a2.16,2.16,0,0,1,-2.16,-2.16l0,-4.32a2.16,2.16,0,0,1,2.16,-2.16l0,0zM20.736,52.416a1.44,1.44,0,1,0,2.88,0,1.44,1.44,0,1,0,-2.88,0z"/>
      <circle fill="black" cx="14.976"  cy="9.936" stroke="black" r="4.68" id="nonconn1" stroke-width="0.72"/>
     </g>
    </g>
   </g>
  </g>
  <g partID="47620">
   <g transform="translate(220.136,119.112)">
    <g  id="copper0">
     <rect width="3.96" x="1.98" y="5.58" fill="black"  height="3.96" stroke="black" id="rect11" stroke-width="2.16"/>
     <circle fill="black" cx="3.96"  cy="7.56" stroke="black" r="1.98" id="connector0pin" stroke-width="2.16"/>
     <circle fill="black" cx="11.16"  cy="7.56" stroke="black" r="1.98" id="connector1pin" stroke-width="2.16"/>
    </g>
   </g>
  </g>
  <g partID="47590">
   <g transform="translate(220.136,155.112)">
    <g  id="copper0">
     <rect width="3.96" x="1.98" y="5.58" fill="black"  height="3.96" stroke="black" id="rect11" stroke-width="2.16"/>
     <circle fill="black" cx="3.96"  cy="7.56" stroke="black" r="1.98" id="connector0pin" stroke-width="2.16"/>
     <circle fill="black" cx="11.16"  cy="7.56" stroke="black" r="1.98" id="connector1pin" stroke-width="2.16"/>
    </g>
   </g>
  </g>
  <g partID="71270">
   <g transform="translate(54.1801,107.956)">
    <g  id="copper0">
     <circle fill="black" cx="4.31559"  cy="4.31559" stroke="black" r="1.99559" id="connector0pin" stroke-width="2.16"/>
    </g>
   </g>
  </g>
  <g partID="71210">
   <g transform="translate(54.1801,122.356)">
    <g  id="copper0">
     <circle fill="black" cx="4.31559"  cy="4.31559" stroke="black" r="1.99559" id="connector0pin" stroke-width="2.16"/>
    </g>
   </g>
  </g>
  <g partID="73820">
   <g transform="translate(154.544,121.92)">
    <g  id="copper0">
     <circle fill="black" cx="4.752"  cy="4.752" stroke="black" r="1.98" id="connector0pad" stroke-width="2.16"/>
     <circle fill="black" cx="40.752"  cy="4.752" stroke="black" r="1.98" id="connector1pad" stroke-width="2.16"/>
    </g>
   </g>
  </g>
  <g partID="74170">
   <g transform="translate(41.9357,95.7115)">
    <g transform="matrix(-1,0,0,-1,0,0)">
     <g  id="copper0">
      <rect width="4.176" x="2.952" y="2.952" fill="black"  height="4.176" stroke="black" id="square" stroke-width="2.16"/>
      <circle fill="black" cx="5.04"  cy="5.04" stroke="black" id="connector0pin" r="2.088" stroke-width="2.16"/>
      <circle fill="black" cx="5.04"  cy="12.24" stroke="black" id="connector1pin" r="2.088" stroke-width="2.16"/>
      <circle fill="black" cx="5.04"  cy="19.44" stroke="black" id="connector2pin" r="2.088" stroke-width="2.16"/>
     </g>
    </g>
   </g>
  </g>
 </g>
</svg>
