<?xml version='1.0' encoding='UTF-8' standalone='no'?>
<!-- Created with Fritzing (http://www.fritzing.org/) -->
<svg xmlns="http://www.w3.org/2000/svg" width="4.9687in" x="0in" version="1.2" y="0in"  height="3.31648in" viewBox="0 0 357.746 238.786" baseProfile="tiny" xmlns:svg="http://www.w3.org/2000/svg">
 <g transform="matrix(-1, 0, 0, 1, 357.746, 0)">
  <g partID="41170">
   <g  id="board">
    <rect width="357.169" x="0.816378" y="0.816378" fill="none"  height="238.21" stroke="black" fill-opacity="0.5" id="boardoutline" stroke-width="0.5"/>
   </g>
  </g>
  <g partID="49821">
   <g transform="translate(70.5715,29.4715)">
    <g gorn="0.3"  id="copper1" stroke-width="0">
     <g gorn="0.3.0"  id="copper0" stroke-width="0">
      <circle fill="none" cx="110.324" gorn="0.3.0.0"  cy="68.4" connectorname="GNDT" stroke="black" r="1.872" id="connector8pad" stroke-width="0.864001"/>
      <rect width="3.74401" x="108.452" y="66.528" fill="none"  height="3.744" stroke="black" stroke-width="0.864001"/>
      <circle fill="none" cx="110.324" gorn="0.3.0.2"  cy="61.2" connectorname="CP" stroke="black" r="1.872" id="connector9pad" stroke-width="0.864001"/>
      <circle fill="none" cx="110.324" gorn="0.3.0.3"  cy="54" connectorname="ANT2" stroke="black" r="1.872" id="connector10pad" stroke-width="0.864001"/>
      <circle fill="none" cx="110.324" gorn="0.3.0.4"  cy="46.8" connectorname="ANT1" stroke="black" r="1.872" id="connector11pad" stroke-width="0.864001"/>
      <circle fill="none" cx="110.324" gorn="0.3.0.5"  cy="39.6" connectorname="TX-O-RS232" stroke="black" r="1.872" id="connector12pad" stroke-width="0.864001"/>
      <circle fill="none" cx="110.324" gorn="0.3.0.6"  cy="32.4" connectorname="TX-O" stroke="black" r="1.872" id="connector13pad" stroke-width="0.864001"/>
      <circle fill="none" cx="110.324" gorn="0.3.0.7"  cy="25.2" connectorname="GND" stroke="black" r="1.872" id="connector14pad" stroke-width="0.864001"/>
      <circle fill="none" cx="110.324" gorn="0.3.0.8"  cy="18" connectorname="VCC" stroke="black" r="1.872" id="connector15pad" stroke-width="0.864001"/>
     </g>
    </g>
   </g>
  </g>
  <g partID="41220">
   <g transform="translate(332.096,225.672)">
    <g transform="matrix(-1,0,0,-1,0,0)">
     <g gorn="0.3"  id="copper1" stroke-width="0">
      <g >
       <g  stroke-width="0">
        <circle fill="none" cx="122.4" gorn="0.3.0.0.0"  cy="5.4" connectorname="RTS_5V" stroke="black" r="2.052" id="connector16pad" stroke-width="1.224"/>
        <circle fill="none" cx="122.4" gorn="0.3.0.0.1"  cy="12.6" connectorname="RX_5V" stroke="black" r="2.052" id="connector15pad" stroke-width="1.224"/>
        <circle fill="none" cx="122.4" gorn="0.3.0.0.2"  cy="19.8" connectorname="TX_5V" stroke="black" r="2.052" id="connector17pad" stroke-width="1.224"/>
        <circle fill="none" cx="122.4" gorn="0.3.0.0.3"  cy="27" connectorname="VCC" stroke="black" r="2.052" id="connector13pad" stroke-width="1.224"/>
        <circle fill="none" cx="122.4" gorn="0.3.0.0.4"  cy="34.2" connectorname="CTS_5V" stroke="black" r="2.052" id="connector14pad" stroke-width="1.224"/>
        <circle fill="none" cx="122.4" gorn="0.3.0.0.5"  cy="41.4" connectorname="GND" stroke="black" r="2.052" id="connector12pad" stroke-width="1.224"/>
       </g>
      </g>
     </g>
    </g>
   </g>
  </g>
  <g partID="44661">
   <g transform="translate(118.796,223.368)">
    <g transform="matrix(-1,0,0,-1,0,0)">
     <g  id="copper1">
      <!-- <rect width="55" x="10" y="15.5" fill="none" height="55" stroke="rgb(255, 191, 0)" stroke-width="20" />  -->
      <circle fill="none" cx="2.7"  cy="3.096" stroke="black" r="1.98" id="connector0pin" stroke-width="1.44"/>
      <circle fill="none" cx="31.5"  cy="3.096" stroke="black" r="1.98" id="connector1pin" stroke-width="1.44"/>
     </g>
    </g>
   </g>
  </g>
  <g partID="44421">
   <g transform="translate(76.7837,209.184)">
    <g transform="matrix(0,-1,1,0,0,0)">
     <g  id="copper1">
      <g  id="copper0">
       <rect width="5.184" x="0.72" y="0.72" fill="none"  height="5.184" stroke="black" id="rect20" stroke-width="1.44"/>
       <circle fill="none" cx="3.312"  cy="3.312" stroke="black" id="connector0pin" r="2.592" stroke-width="1.44"/>
       <circle fill="none" cx="24.912"  cy="3.312" stroke="black" id="connector1pin" r="2.592" stroke-width="1.44"/>
      </g>
     </g>
    </g>
   </g>
  </g>
  <g partID="45321">
   <g transform="translate(156.416,217.392)">
    <g  id="copper1">
     <circle fill="none" cx="2.88"  cy="2.88" stroke="black" id="connector0pin" r="1.8" stroke-width="1.44"/>
     <circle fill="none" cx="10.0933"  cy="2.88" stroke="black" id="connector1pin" r="1.8" stroke-width="1.44"/>
    </g>
   </g>
  </g>
  <g partID="45301">
   <g transform="translate(134.816,217.392)">
    <g  id="copper1">
     <circle fill="none" cx="2.88"  cy="2.88" stroke="black" id="connector0pin" r="1.8" stroke-width="1.44"/>
     <circle fill="none" cx="10.0933"  cy="2.88" stroke="black" id="connector1pin" r="1.8" stroke-width="1.44"/>
    </g>
   </g>
  </g>
  <g partID="45951">
   <g transform="translate(167.941,205.758)">
    <g transform="matrix(-1,0,0,-1,0,0)">
     <g  id="copper1">
      <circle fill="none" cx="22.5479"  cy="7.08448" stroke="black" id="connector1pin" r="1.84465" stroke-width="1.41732"/>
      <circle fill="none" cx="8.64567"  cy="7.08661" stroke="black" id="connector0pin" r="1.84252" stroke-width="1.41732"/>
     </g>
    </g>
   </g>
  </g>
  <g partID="47571">
   <g transform="translate(298.112,133.296)">
    <g transform="matrix(0,1,-1,0,0,0)">
     <g  id="copper1">
      <circle fill="none" cx="7.776"  cy="52.416" connectorname="IN" stroke="black" id="connector1pad" r="1.8" stroke-width="0.72"/>
      <path fill="black"  stroke="none" stroke-width="0" d="m7.776,48.096a2.16,2.16,0,0,1,2.16,2.16l0,4.32a2.16,2.16,0,0,1,-2.16,2.16l0,0a2.16,2.16,0,0,1,-2.16,-2.16l0,-4.32a2.16,2.16,0,0,1,2.16,-2.16l0,0zM6.336,52.416a1.44,1.44,0,1,0,2.88,0,1.44,1.44,0,1,0,-2.88,0z"/>
      <circle fill="none" cx="14.976"  cy="52.416" connectorname="GND" stroke="black" id="connector0pad" r="1.8" stroke-width="0.72"/>
      <path fill="black"  stroke="none" stroke-width="0" d="m14.976,48.096a2.16,2.16,0,0,1,2.16,2.16l0,4.32a2.16,2.16,0,0,1,-2.16,2.16l0,0a2.16,2.16,0,0,1,-2.16,-2.16l0,-4.32a2.16,2.16,0,0,1,2.16,-2.16l0,0zM13.536,52.416a1.44,1.44,0,1,0,2.88,0,1.44,1.44,0,1,0,-2.88,0z"/>
      <circle fill="none" cx="22.176"  cy="52.416" connectorname="OUT" stroke="black" id="connector2pad" r="1.8" stroke-width="0.72"/>
      <path fill="black"  stroke="none" stroke-width="0" d="m22.176,48.096a2.16,2.16,0,0,1,2.16,2.16l0,4.32a2.16,2.16,0,0,1,-2.16,2.16l0,0a2.16,2.16,0,0,1,-2.16,-2.16l0,-4.32a2.16,2.16,0,0,1,2.16,-2.16l0,0zM20.736,52.416a1.44,1.44,0,1,0,2.88,0,1.44,1.44,0,1,0,-2.88,0z"/>
      <circle fill="black" cx="14.976"  cy="9.936" stroke="black" r="4.68" id="nonconn0" stroke-width="0"/>
      <g  id="copper0">
       <circle fill="none" cx="7.776"  cy="52.416" connectorname="IN" stroke="black" id="connector1pad" r="1.8" stroke-width="0.72"/>
       <path fill="black"  stroke="none" stroke-width="0" d="m7.776,48.096a2.16,2.16,0,0,1,2.16,2.16l0,4.32a2.16,2.16,0,0,1,-2.16,2.16l0,0a2.16,2.16,0,0,1,-2.16,-2.16l0,-4.32a2.16,2.16,0,0,1,2.16,-2.16l0,0zM6.336,52.416a1.44,1.44,0,1,0,2.88,0,1.44,1.44,0,1,0,-2.88,0z"/>
       <circle fill="none" cx="14.976"  cy="52.416" connectorname="GND" stroke="black" id="connector0pad" r="1.8" stroke-width="0.72"/>
       <path fill="black"  stroke="none" stroke-width="0" d="m14.976,48.096a2.16,2.16,0,0,1,2.16,2.16l0,4.32a2.16,2.16,0,0,1,-2.16,2.16l0,0a2.16,2.16,0,0,1,-2.16,-2.16l0,-4.32a2.16,2.16,0,0,1,2.16,-2.16l0,0zM13.536,52.416a1.44,1.44,0,1,0,2.88,0,1.44,1.44,0,1,0,-2.88,0z"/>
       <circle fill="none" cx="22.176"  cy="52.416" connectorname="OUT" stroke="black" id="connector2pad" r="1.8" stroke-width="0.72"/>
       <path fill="black"  stroke="none" stroke-width="0" d="m22.176,48.096a2.16,2.16,0,0,1,2.16,2.16l0,4.32a2.16,2.16,0,0,1,-2.16,2.16l0,0a2.16,2.16,0,0,1,-2.16,-2.16l0,-4.32a2.16,2.16,0,0,1,2.16,-2.16l0,0zM20.736,52.416a1.44,1.44,0,1,0,2.88,0,1.44,1.44,0,1,0,-2.88,0z"/>
       <circle fill="black" cx="14.976"  cy="9.936" stroke="black" r="4.68" id="nonconn1" stroke-width="0"/>
      </g>
     </g>
    </g>
   </g>
  </g>
  <g partID="47621">
   <g transform="translate(220.136,119.112)">
    <g  id="copper1">
     <g  id="copper0">
      <rect width="3.96" x="1.98" y="5.58" fill="none"  height="3.96" stroke="black" id="rect11" stroke-width="1.44"/>
      <circle fill="none" cx="3.96"  cy="7.56" stroke="black" r="1.98" id="connector0pin" stroke-width="1.44"/>
      <circle fill="none" cx="11.16"  cy="7.56" stroke="black" r="1.98" id="connector1pin" stroke-width="1.44"/>
     </g>
    </g>
   </g>
  </g>
  <g partID="47591">
   <g transform="translate(220.136,155.112)">
    <g  id="copper1">
     <g  id="copper0">
      <rect width="3.96" x="1.98" y="5.58" fill="none"  height="3.96" stroke="black" id="rect11" stroke-width="1.44"/>
      <circle fill="none" cx="3.96"  cy="7.56" stroke="black" r="1.98" id="connector0pin" stroke-width="1.44"/>
      <circle fill="none" cx="11.16"  cy="7.56" stroke="black" r="1.98" id="connector1pin" stroke-width="1.44"/>
     </g>
    </g>
   </g>
  </g>
  <g partID="44301">
   <g transform="translate(90.1757,174.192)">
    <g transform="matrix(0,-1,1,0,0,0)">
     <g  id="copper1" stroke-width="0">
      <g  id="copper0" stroke-width="0">
       <rect width="3.96" x="2.34" y="2.34" fill="none"  height="3.96" stroke="black" stroke-width="1.44"/>
       <circle fill="none" cx="4.32"  cy="4.32" stroke="black" id="connector0pin" r="1.98" stroke-width="1.44"/>
       <circle fill="none" cx="25.92"  cy="4.32" stroke="black" id="connector27pin" r="1.98" stroke-width="1.44"/>
       <circle fill="none" cx="4.32"  cy="11.52" stroke="black" id="connector1pin" r="1.98" stroke-width="1.44"/>
       <circle fill="none" cx="25.92"  cy="11.52" stroke="black" id="connector26pin" r="1.98" stroke-width="1.44"/>
       <circle fill="none" cx="4.32"  cy="18.72" stroke="black" id="connector2pin" r="1.98" stroke-width="1.44"/>
       <circle fill="none" cx="25.92"  cy="18.72" stroke="black" id="connector25pin" r="1.98" stroke-width="1.44"/>
       <circle fill="none" cx="4.32"  cy="25.92" stroke="black" id="connector3pin" r="1.98" stroke-width="1.44"/>
       <circle fill="none" cx="25.92"  cy="25.92" stroke="black" id="connector24pin" r="1.98" stroke-width="1.44"/>
       <circle fill="none" cx="4.32"  cy="33.12" stroke="black" id="connector4pin" r="1.98" stroke-width="1.44"/>
       <circle fill="none" cx="25.92"  cy="33.12" stroke="black" id="connector23pin" r="1.98" stroke-width="1.44"/>
       <circle fill="none" cx="4.32"  cy="40.32" stroke="black" id="connector5pin" r="1.98" stroke-width="1.44"/>
       <circle fill="none" cx="25.92"  cy="40.32" stroke="black" id="connector22pin" r="1.98" stroke-width="1.44"/>
       <circle fill="none" cx="4.32"  cy="47.52" stroke="black" id="connector6pin" r="1.98" stroke-width="1.44"/>
       <circle fill="none" cx="25.92"  cy="47.52" stroke="black" id="connector21pin" r="1.98" stroke-width="1.44"/>
       <circle fill="none" cx="4.32"  cy="54.72" stroke="black" id="connector7pin" r="1.98" stroke-width="1.44"/>
       <circle fill="none" cx="25.92"  cy="54.72" stroke="black" id="connector20pin" r="1.98" stroke-width="1.44"/>
       <circle fill="none" cx="4.32"  cy="61.92" stroke="black" id="connector8pin" r="1.98" stroke-width="1.44"/>
       <circle fill="none" cx="25.92"  cy="61.92" stroke="black" id="connector19pin" r="1.98" stroke-width="1.44"/>
       <circle fill="none" cx="4.32"  cy="69.12" stroke="black" id="connector9pin" r="1.98" stroke-width="1.44"/>
       <circle fill="none" cx="25.92"  cy="69.12" stroke="black" id="connector18pin" r="1.98" stroke-width="1.44"/>
       <circle fill="none" cx="4.32"  cy="76.32" stroke="black" id="connector10pin" r="1.98" stroke-width="1.44"/>
       <circle fill="none" cx="25.92"  cy="76.32" stroke="black" id="connector17pin" r="1.98" stroke-width="1.44"/>
       <circle fill="none" cx="4.32"  cy="83.52" stroke="black" id="connector11pin" r="1.98" stroke-width="1.44"/>
       <circle fill="none" cx="25.92"  cy="83.52" stroke="black" id="connector16pin" r="1.98" stroke-width="1.44"/>
       <circle fill="none" cx="4.32"  cy="90.72" stroke="black" id="connector12pin" r="1.98" stroke-width="1.44"/>
       <circle fill="none" cx="25.92"  cy="90.72" stroke="black" id="connector15pin" r="1.98" stroke-width="1.44"/>
       <circle fill="none" cx="4.32"  cy="97.92" stroke="black" id="connector13pin" r="1.98" stroke-width="1.44"/>
       <circle fill="none" cx="25.92"  cy="97.92" stroke="black" id="connector14pin" r="1.98" stroke-width="1.44"/>
      </g>
     </g>
    </g>
   </g>
  </g>
  <g partID="71211">
   <g transform="translate(54.1801,122.356)">
    <g  id="copper1">
     <circle fill="none" cx="4.31559"  cy="4.31559" stroke="black" r="1.99559" id="connector0pin" stroke-width="1.44"/>
    </g>
   </g>
  </g>
  <g partID="71271">
   <g transform="translate(54.1801,107.956)">
    <g  id="copper1">
     <circle fill="none" cx="4.31559"  cy="4.31559" stroke="black" r="1.99559" id="connector0pin" stroke-width="1.44"/>
    </g>
   </g>
  </g>
  <g partID="73821">
   <g transform="translate(154.544,121.92)">
    <g  id="copper1">
     <circle fill="none" cx="4.752"  cy="4.752" stroke="black" r="1.98" id="connector0pad" stroke-width="1.44"/>
     <circle fill="none" cx="40.752"  cy="4.752" stroke="black" r="1.98" id="connector1pad" stroke-width="1.44"/>
    </g>
   </g>
  </g>
  <g partID="74171">
   <g transform="translate(41.9357,95.7115)">
    <g transform="matrix(-1,0,0,-1,0,0)">
     <g  id="copper1">
      <g  id="copper0">
       <rect width="4.176" x="2.952" y="2.952" fill="none"  height="4.176" stroke="black" id="square" stroke-width="1.44"/>
       <circle fill="none" cx="5.04"  cy="5.04" stroke="black" id="connector0pin" r="2.088" stroke-width="1.44"/>
       <circle fill="none" cx="5.04"  cy="12.24" stroke="black" id="connector1pin" r="2.088" stroke-width="1.44"/>
       <circle fill="none" cx="5.04"  cy="19.44" stroke="black" id="connector2pin" r="2.088" stroke-width="1.44"/>
      </g>
     </g>
    </g>
   </g>
  </g>
  <g partID="68950">
   <line stroke="black" stroke-linecap="round" y1="218.392" x1="144.951" y2="200.609" stroke-width="1.728" x2="145.35"/>
  </g>
  <g partID="68980">
   <line stroke="black" stroke-linecap="round" y1="218.392" x1="159.296" y2="200.605" stroke-width="1.728" x2="159.296"/>
  </g>
  <g partID="69010">
   <line stroke="black" stroke-linecap="round" y1="171.932" x1="152.107" y2="191.466" stroke-width="1.728" x2="152.213"/>
  </g>
  <g partID="69280">
   <line stroke="black" stroke-linecap="round" y1="191.466" x1="152.213" y2="197.267" stroke-width="1.728" x2="146.724"/>
  </g>
  <g partID="69040">
   <line stroke="black" stroke-linecap="round" y1="196.738" x1="159.296" y2="171.932" stroke-width="1.728" x2="159.296"/>
  </g>
  <g partID="69100">
   <line stroke="black" stroke-linecap="round" y1="227.585" x1="137.766" y2="227.585" stroke-width="1.728" x2="166.372"/>
  </g>
  <g partID="69130">
   <line stroke="black" stroke-linecap="round" y1="227.585" x1="166.372" y2="222.151" stroke-width="1.728" x2="166.474"/>
  </g>
  <g partID="69070">
   <line stroke="black" stroke-linecap="round" y1="222.151" x1="137.714" y2="227.585" stroke-width="1.728" x2="137.766"/>
  </g>
  <g partID="69220">
   <line stroke="black" stroke-linecap="round" y1="191.466" x1="130.542" y2="191.466" stroke-width="1.728" x2="144.989"/>
  </g>
  <g partID="69190">
   <line stroke="black" stroke-linecap="round" y1="220.403" x1="130.668" y2="191.466" stroke-width="1.728" x2="130.542"/>
  </g>
  <g partID="69160">
   <line stroke="black" stroke-linecap="round" y1="220.307" x1="135.816" y2="220.403" stroke-width="1.728" x2="130.668"/>
  </g>
  <g partID="69250">
   <line stroke="black" stroke-linecap="round" y1="191.466" x1="144.989" y2="171.932" stroke-width="1.728" x2="144.905"/>
  </g>
  <g partID="69310">
   <line stroke="black" stroke-linecap="round" y1="218.429" x1="86.3744" y2="208.261" stroke-width="1.728" x2="81.2907"/>
  </g>
  <g partID="69450">
   <line stroke="black" stroke-linecap="round" y1="182.382" x1="81.9851" y2="171.328" stroke-width="1.728" x2="93.0391"/>
  </g>
  <g partID="69520">
   <line stroke="black" stroke-linecap="round" y1="220.403" x1="130.668" y2="220.29" stroke-width="1.728" x2="118.156"/>
  </g>
  <g partID="69630">
   <line stroke="black" stroke-linecap="round" y1="128.732" x1="231.288" y2="148.159" stroke-width="1.728" x2="231.219"/>
  </g>
  <g partID="69660">
   <line stroke="black" stroke-linecap="round" y1="148.159" x1="231.219" y2="148.254" stroke-width="1.728" x2="243.456"/>
  </g>
  <g partID="69720">
   <line stroke="black" stroke-linecap="round" y1="162.523" x1="245.583" y2="157.711" stroke-width="1.728" x2="245.66"/>
  </g>
  <g partID="69690">
   <line stroke="black" stroke-linecap="round" y1="162.65" x1="233.356" y2="162.523" stroke-width="1.728" x2="245.583"/>
  </g>
  <g partID="69810">
   <line stroke="black" stroke-linecap="round" y1="105.066" x1="245.583" y2="138.832" stroke-width="1.728" x2="245.689"/>
  </g>
  <g partID="69780">
   <line stroke="black" stroke-linecap="round" y1="105.066" x1="224.037" y2="105.066" stroke-width="1.728" x2="245.583"/>
  </g>
  <g partID="69750">
   <line stroke="black" stroke-linecap="round" y1="124.612" x1="224.09" y2="105.066" stroke-width="1.728" x2="224.037"/>
  </g>
  <g partID="69900">
   <line stroke="black" stroke-linecap="round" y1="213.221" x1="281.494" y2="151.116" stroke-width="1.728" x2="280.649"/>
  </g>
  <g partID="69930">
   <line stroke="black" stroke-linecap="round" y1="151.116" x1="280.649" y2="148.453" stroke-width="1.728" x2="247.928"/>
  </g>
  <g partID="69870">
   <line stroke="black" stroke-linecap="round" y1="213.076" x1="211.936" y2="213.221" stroke-width="1.728" x2="281.494"/>
  </g>
  <g partID="69990">
   <line stroke="black" stroke-linecap="round" y1="206.039" x1="166.579" y2="205.88" stroke-width="1.728" x2="207.456"/>
  </g>
  <g partID="69960">
   <line stroke="black" stroke-linecap="round" y1="218.392" x1="166.518" y2="206.039" stroke-width="1.728" x2="166.579"/>
  </g>
  <g partID="70090">
   <line stroke="black" stroke-linecap="round" y1="191.674" x1="180.944" y2="191.487" stroke-width="1.728" x2="207.456"/>
  </g>
  <g partID="70020">
   <line stroke="black" stroke-linecap="round" y1="171.826" x1="174.346" y2="191.674" stroke-width="1.728" x2="180.944"/>
  </g>
  <g partID="70260">
   <line stroke="black" stroke-linecap="round" y1="197.589" x1="174.184" y2="171.857" stroke-width="1.728" x2="167.046"/>
  </g>
  <g partID="70270">
   <line stroke="black" stroke-linecap="round" y1="198.603" x1="207.457" y2="197.589" stroke-width="1.728" x2="174.184"/>
  </g>
  <g partID="70300">
   <line stroke="black" stroke-linecap="round" y1="164.732" x1="224.093" y2="206.039" stroke-width="1.728" x2="224.037"/>
  </g>
  <g partID="70330">
   <line stroke="black" stroke-linecap="round" y1="206.039" x1="224.037" y2="205.898" stroke-width="1.728" x2="211.936"/>
  </g>
  <g partID="70390">
   <line stroke="black" stroke-linecap="round" y1="162.523" x1="137.851" y2="162.523" stroke-width="1.728" x2="166.579"/>
  </g>
  <g partID="70360">
   <line stroke="black" stroke-linecap="round" y1="167.812" x1="137.739" y2="162.523" stroke-width="1.728" x2="137.851"/>
  </g>
  <g partID="70420">
   <line stroke="black" stroke-linecap="round" y1="162.523" x1="166.579" y2="162.667" stroke-width="1.728" x2="229.236"/>
  </g>
  <g partID="70480">
   <line stroke="black" stroke-linecap="round" y1="162.523" x1="152.215" y2="150.331" stroke-width="1.728" x2="152.113"/>
  </g>
  <g partID="70450">
   <line stroke="black" stroke-linecap="round" y1="162.523" x1="166.579" y2="162.523" stroke-width="1.728" x2="152.215"/>
  </g>
  <g partID="71440">
   <line stroke="black" stroke-linecap="round" y1="133.795" x1="152.215" y2="133.795" stroke-width="1.728" x2="72.7887"/>
  </g>
  <g partID="71410">
   <line stroke="black" stroke-linecap="round" y1="133.795" x1="72.7887" y2="112.248" stroke-width="1.728" x2="65.6065"/>
  </g>
  <g partID="71380">
   <line stroke="black" stroke-linecap="round" y1="112.248" x1="65.6065" y2="112.265" stroke-width="1.728" x2="60.5713"/>
  </g>
  <g partID="71350">
   <line stroke="black" stroke-linecap="round" y1="146.212" x1="152.113" y2="133.795" stroke-width="1.728" x2="152.215"/>
  </g>
  <g partID="71560">
   <line stroke="black" stroke-linecap="round" y1="47.6086" x1="281.494" y2="47.4746" stroke-width="1.728" x2="183.136"/>
  </g>
  <g partID="71530">
   <line stroke="black" stroke-linecap="round" y1="151.116" x1="280.649" y2="47.6086" stroke-width="1.728" x2="281.494"/>
  </g>
  <g partID="72100">
   <line stroke="black" stroke-linecap="round" y1="146.212" x1="166.498" y2="76.3372" stroke-width="1.728" x2="166.579"/>
  </g>
  <g partID="72170">
   <line stroke="black" stroke-linecap="round" y1="76.3372" x1="166.579" y2="76.2818" stroke-width="1.728" x2="178.656"/>
  </g>
  <g partID="73380">
   <line stroke="black" stroke-linecap="round" y1="83.5194" x1="173.761" y2="83.4866" stroke-width="1.728" x2="178.656"/>
  </g>
  <g partID="73310">
   <line stroke="black" stroke-linecap="round" y1="146.212" x1="173.698" y2="83.5194" stroke-width="1.728" x2="173.761"/>
  </g>
  <g partID="73730">
   <line stroke="black" stroke-linecap="round" y1="97.8837" x1="188.126" y2="97.8753" stroke-width="1.728" x2="183.136"/>
  </g>
  <g partID="73660">
   <line stroke="black" stroke-linecap="round" y1="119.43" x1="188.126" y2="97.8837" stroke-width="1.728" x2="188.126"/>
  </g>
  <g partID="73520">
   <line stroke="black" stroke-linecap="round" y1="119.43" x1="180.944" y2="119.43" stroke-width="1.728" x2="188.126"/>
  </g>
  <g partID="73450">
   <line stroke="black" stroke-linecap="round" y1="146.212" x1="180.899" y2="119.43" stroke-width="1.728" x2="180.944"/>
  </g>
  <g partID="73850">
   <line stroke="black" stroke-linecap="round" y1="129.002" x1="159.296" y2="146.212" stroke-width="1.728" x2="159.296"/>
  </g>
  <g partID="73950">
   <line stroke="black" stroke-linecap="round" y1="90.7016" x1="195.308" y2="90.6762" stroke-width="1.728" x2="183.136"/>
  </g>
  <g partID="73880">
   <line stroke="black" stroke-linecap="round" y1="124.342" x1="195.296" y2="90.7016" stroke-width="1.728" x2="195.308"/>
  </g>
  <g partID="76960">
   <line stroke="black" stroke-linecap="round" y1="76.6141" x1="49.2676" y2="76.3315" stroke-width="1.728" x2="39.0629"/>
  </g>
  <g partID="75060">
   <line stroke="black" stroke-linecap="round" y1="126.557" x1="152.235" y2="126.557" stroke-width="1.728" x2="87.4735"/>
  </g>
  <g partID="75090">
   <line stroke="black" stroke-linecap="round" y1="61.7954" x1="152.235" y2="126.557" stroke-width="1.728" x2="152.235"/>
  </g>
  <g partID="75030">
   <line stroke="black" stroke-linecap="round" y1="126.557" x1="87.4735" y2="76.3985" stroke-width="1.728" x2="94.4576"/>
  </g>
  <g partID="74580">
   <line stroke="black" stroke-linecap="round" y1="61.8656" x1="178.656" y2="61.7954" stroke-width="1.728" x2="152.235"/>
  </g>
  <g partID="75000">
   <line stroke="black" stroke-linecap="round" y1="76.3985" x1="94.4576" y2="76.6141" stroke-width="1.728" x2="49.2676"/>
  </g>
  <g partID="74640">
   <line stroke="black" stroke-linecap="round" y1="76.3372" x1="22.5135" y2="76.2814" stroke-width="1.728" x2="34.7277"/>
  </g>
  <g partID="74670">
   <line stroke="black" stroke-linecap="round" y1="119.43" x1="22.5135" y2="76.3372" stroke-width="1.728" x2="22.5135"/>
  </g>
  <g partID="74610">
   <line stroke="black" stroke-linecap="round" y1="146.212" x1="137.739" y2="140.977" stroke-width="1.728" x2="137.851"/>
  </g>
  <g partID="74700">
   <line stroke="black" stroke-linecap="round" y1="143.512" x1="35.6104" y2="119.43" stroke-width="1.728" x2="22.5135"/>
  </g>
  <g partID="74730">
   <line stroke="black" stroke-linecap="round" y1="140.977" x1="137.851" y2="140.977" stroke-width="1.728" x2="44.06"/>
  </g>
  <g partID="74910">
   <line stroke="black" stroke-linecap="round" y1="140.977" x1="44.06" y2="143.512" stroke-width="1.728" x2="35.6104"/>
  </g>
  <g partID="74760">
   <line stroke="black" stroke-linecap="round" y1="143.512" x1="35.6104" y2="191.674" stroke-width="1.728" x2="65.6065"/>
  </g>
  <g partID="74850">
   <line stroke="black" stroke-linecap="round" y1="234.767" x1="79.9708" y2="234.767" stroke-width="1.728" x2="116.304"/>
  </g>
  <g partID="74790">
   <line stroke="black" stroke-linecap="round" y1="191.674" x1="65.6065" y2="198.856" stroke-width="1.728" x2="65.6065"/>
  </g>
  <g partID="74880">
   <line stroke="black" stroke-linecap="round" y1="234.767" x1="116.304" y2="222.331" stroke-width="1.728" x2="116.125"/>
  </g>
  <g partID="74820">
   <line stroke="black" stroke-linecap="round" y1="198.856" x1="65.6065" y2="234.767" stroke-width="1.728" x2="79.9708"/>
  </g>
  <g partID="77090">
   <line stroke="black" stroke-linecap="round" y1="119.672" x1="29.6957" y2="83.4642" stroke-width="1.728" x2="29.6957"/>
  </g>
  <g partID="77040">
   <line stroke="black" stroke-linecap="round" y1="83.4642" x1="29.6957" y2="83.4693" stroke-width="1.728" x2="34.7277"/>
  </g>
  <g partID="76990">
   <line stroke="black" stroke-linecap="round" y1="125.218" x1="57.0143" y2="112.333" stroke-width="1.728" x2="43.8853"/>
  </g>
  <g partID="77140">
   <line stroke="black" stroke-linecap="round" y1="112.333" x1="43.8853" y2="119.672" stroke-width="1.728" x2="29.6957"/>
  </g>
 </g>
</svg>
