<?xml version='1.0' encoding='UTF-8' standalone='no'?>
<!-- Created with Fritzing (http://www.fritzing.org/) -->
<svg xmlns="http://www.w3.org/2000/svg" width="4.9687in" x="0in" version="1.2" y="0in"  height="3.31648in" viewBox="0 0 357.746 238.786" baseProfile="tiny" xmlns:svg="http://www.w3.org/2000/svg">
 <g transform="matrix(-1, 0, 0, 1, 357.746, 0)">
  <g partID="41170">
   <g  id="board">
    <rect width="357.169" x="0.816378" y="0.816378" fill="none"  height="238.21" stroke="black" fill-opacity="0.5" id="boardoutline" stroke-width="0.5"/>
   </g>
  </g>
  <g partID="49821">
   <g transform="translate(70.5715,29.4715)">
    <g gorn="0.3"  id="copper1" stroke-width="0">
     <g gorn="0.3.0"  id="copper0" stroke-width="0">
      <g fill="none" cx="110.324" gorn="0.3.0.0"  cy="68.4" connectorname="GNDT" stroke="black" r="1.872" id="0" stroke-width="0.864001"/>
      <g width="3.74401" x="108.452" y="66.528" fill="none"  height="3.744" stroke="black" id="1" stroke-width="0.864001"/>
      <g fill="none" cx="110.324" gorn="0.3.0.2"  cy="61.2" connectorname="CP" stroke="black" r="1.872" id="2" stroke-width="0.864001"/>
      <g fill="none" cx="110.324" gorn="0.3.0.3"  cy="54" connectorname="ANT2" stroke="black" r="1.872" id="3" stroke-width="0.864001"/>
      <g fill="none" cx="110.324" gorn="0.3.0.4"  cy="46.8" connectorname="ANT1" stroke="black" r="1.872" id="4" stroke-width="0.864001"/>
      <g fill="none" cx="110.324" gorn="0.3.0.5"  cy="39.6" connectorname="TX-O-RS232" stroke="black" r="1.872" id="5" stroke-width="0.864001"/>
      <g fill="none" cx="110.324" gorn="0.3.0.6"  cy="32.4" connectorname="TX-O" stroke="black" r="1.872" id="6" stroke-width="0.864001"/>
      <g fill="none" cx="110.324" gorn="0.3.0.7"  cy="25.2" connectorname="GND" stroke="black" r="1.872" id="7" stroke-width="0.864001"/>
      <g fill="none" cx="110.324" gorn="0.3.0.8"  cy="18" connectorname="VCC" stroke="black" r="1.872" id="8" stroke-width="0.864001"/>
     </g>
    </g>
   </g>
  </g>
  <g partID="41220">
   <g transform="translate(332.096,225.672)">
    <g transform="matrix(-1,0,0,-1,0,0)">
     <g gorn="0.3"  id="copper1" stroke-width="0">
      <g >
       <g  stroke-width="0">
        <circle fill="none" cx="122.4" gorn="0.3.0.0.0"  cy="5.4" connectorname="RTS_5V" stroke="black" r="2.052" id="9" stroke-width="1.224"/>
        <circle fill="none" cx="122.4" gorn="0.3.0.0.1"  cy="12.6" connectorname="RX_5V" stroke="black" r="2.052" id="10" stroke-width="1.224"/>
        <circle fill="none" cx="122.4" gorn="0.3.0.0.2"  cy="19.8" connectorname="TX_5V" stroke="black" r="2.052" id="11" stroke-width="1.224"/>
        <circle fill="none" cx="122.4" gorn="0.3.0.0.3"  cy="27" connectorname="VCC" stroke="black" r="2.052" id="12" stroke-width="1.224"/>
        <circle fill="none" cx="122.4" gorn="0.3.0.0.4"  cy="34.2" connectorname="CTS_5V" stroke="black" r="2.052" id="13" stroke-width="1.224"/>
        <circle fill="none" cx="122.4" gorn="0.3.0.0.5"  cy="41.4" connectorname="GND" stroke="black" r="2.052" id="14" stroke-width="1.224"/>
       </g>
      </g>
     </g>
    </g>
   </g>
  </g>
  <g partID="44661">
   <g transform="translate(118.796,223.368)">
    <g transform="matrix(-1,0,0,-1,0,0)">
     <g  id="copper1">
      <!-- <rect width="55" x="10" y="15.5" fill="none" height="55" stroke="rgb(255, 191, 0)" stroke-width="20" />  -->
      <g fill="none" cx="2.7"  cy="3.096" stroke="black" r="1.98" id="15" stroke-width="1.44"/>
      <g fill="none" cx="31.5"  cy="3.096" stroke="black" r="1.98" id="16" stroke-width="1.44"/>
     </g>
    </g>
   </g>
  </g>
  <g partID="44421">
   <g transform="translate(76.7837,209.184)">
    <g transform="matrix(0,-1,1,0,0,0)">
     <g  id="copper1">
      <g  id="copper0">
       <g width="5.184" x="0.72" y="0.72" fill="none"  height="5.184" stroke="black" id="17" stroke-width="1.44"/>
       <g fill="none" cx="3.312"  cy="3.312" stroke="black" id="18" r="2.592" stroke-width="1.44"/>
       <g fill="none" cx="24.912"  cy="3.312" stroke="black" id="19" r="2.592" stroke-width="1.44"/>
      </g>
     </g>
    </g>
   </g>
  </g>
  <g partID="45321">
   <g transform="translate(156.416,217.392)">
    <g  id="copper1">
     <g fill="none" cx="2.88"  cy="2.88" stroke="black" id="20" r="1.8" stroke-width="1.44"/>
     <g fill="none" cx="10.0933"  cy="2.88" stroke="black" id="21" r="1.8" stroke-width="1.44"/>
    </g>
   </g>
  </g>
  <g partID="45301">
   <g transform="translate(134.816,217.392)">
    <g  id="copper1">
     <g fill="none" cx="2.88"  cy="2.88" stroke="black" id="22" r="1.8" stroke-width="1.44"/>
     <g fill="none" cx="10.0933"  cy="2.88" stroke="black" id="23" r="1.8" stroke-width="1.44"/>
    </g>
   </g>
  </g>
  <g partID="45951">
   <g transform="translate(167.941,205.758)">
    <g transform="matrix(-1,0,0,-1,0,0)">
     <g  id="copper1">
      <g fill="none" cx="22.5479"  cy="7.08448" stroke="black" id="24" r="1.84465" stroke-width="1.41732"/>
      <g fill="none" cx="8.64567"  cy="7.08661" stroke="black" id="25" r="1.84252" stroke-width="1.41732"/>
     </g>
    </g>
   </g>
  </g>
  <g partID="47571">
   <g transform="translate(298.112,133.296)">
    <g transform="matrix(0,1,-1,0,0,0)">
     <g  id="copper1">
      <g fill="none" cx="7.776"  cy="52.416" connectorname="IN" stroke="black" id="26" r="1.8" stroke-width="0.72"/>
      <g fill="black"  stroke="none" id="27" stroke-width="0" d="m7.776,48.096a2.16,2.16,0,0,1,2.16,2.16l0,4.32a2.16,2.16,0,0,1,-2.16,2.16l0,0a2.16,2.16,0,0,1,-2.16,-2.16l0,-4.32a2.16,2.16,0,0,1,2.16,-2.16l0,0zM6.336,52.416a1.44,1.44,0,1,0,2.88,0,1.44,1.44,0,1,0,-2.88,0z"/>
      <g fill="none" cx="14.976"  cy="52.416" connectorname="GND" stroke="black" id="28" r="1.8" stroke-width="0.72"/>
      <g fill="black"  stroke="none" id="29" stroke-width="0" d="m14.976,48.096a2.16,2.16,0,0,1,2.16,2.16l0,4.32a2.16,2.16,0,0,1,-2.16,2.16l0,0a2.16,2.16,0,0,1,-2.16,-2.16l0,-4.32a2.16,2.16,0,0,1,2.16,-2.16l0,0zM13.536,52.416a1.44,1.44,0,1,0,2.88,0,1.44,1.44,0,1,0,-2.88,0z"/>
      <g fill="none" cx="22.176"  cy="52.416" connectorname="OUT" stroke="black" id="30" r="1.8" stroke-width="0.72"/>
      <g fill="black"  stroke="none" id="31" stroke-width="0" d="m22.176,48.096a2.16,2.16,0,0,1,2.16,2.16l0,4.32a2.16,2.16,0,0,1,-2.16,2.16l0,0a2.16,2.16,0,0,1,-2.16,-2.16l0,-4.32a2.16,2.16,0,0,1,2.16,-2.16l0,0zM20.736,52.416a1.44,1.44,0,1,0,2.88,0,1.44,1.44,0,1,0,-2.88,0z"/>
      <circle fill="black" cx="14.976"  cy="9.936" stroke="black" r="4.68" id="32" stroke-width="0"/>
      <g  id="copper0">
       <g fill="none" cx="7.776"  cy="52.416" connectorname="IN" stroke="black" id="33" r="1.8" stroke-width="0.72"/>
       <g fill="black"  stroke="none" id="34" stroke-width="0" d="m7.776,48.096a2.16,2.16,0,0,1,2.16,2.16l0,4.32a2.16,2.16,0,0,1,-2.16,2.16l0,0a2.16,2.16,0,0,1,-2.16,-2.16l0,-4.32a2.16,2.16,0,0,1,2.16,-2.16l0,0zM6.336,52.416a1.44,1.44,0,1,0,2.88,0,1.44,1.44,0,1,0,-2.88,0z"/>
       <g fill="none" cx="14.976"  cy="52.416" connectorname="GND" stroke="black" id="35" r="1.8" stroke-width="0.72"/>
       <g fill="black"  stroke="none" id="36" stroke-width="0" d="m14.976,48.096a2.16,2.16,0,0,1,2.16,2.16l0,4.32a2.16,2.16,0,0,1,-2.16,2.16l0,0a2.16,2.16,0,0,1,-2.16,-2.16l0,-4.32a2.16,2.16,0,0,1,2.16,-2.16l0,0zM13.536,52.416a1.44,1.44,0,1,0,2.88,0,1.44,1.44,0,1,0,-2.88,0z"/>
       <g fill="none" cx="22.176"  cy="52.416" connectorname="OUT" stroke="black" id="37" r="1.8" stroke-width="0.72"/>
       <g fill="black"  stroke="none" id="38" stroke-width="0" d="m22.176,48.096a2.16,2.16,0,0,1,2.16,2.16l0,4.32a2.16,2.16,0,0,1,-2.16,2.16l0,0a2.16,2.16,0,0,1,-2.16,-2.16l0,-4.32a2.16,2.16,0,0,1,2.16,-2.16l0,0zM20.736,52.416a1.44,1.44,0,1,0,2.88,0,1.44,1.44,0,1,0,-2.88,0z"/>
       <circle fill="black" cx="14.976"  cy="9.936" stroke="black" r="4.68" id="39" stroke-width="0"/>
      </g>
     </g>
    </g>
   </g>
  </g>
  <g partID="47621">
   <g transform="translate(220.136,119.112)">
    <g  id="copper1">
     <g  id="copper0">
      <g width="3.96" x="1.98" y="5.58" fill="none"  height="3.96" stroke="black" id="40" stroke-width="1.44"/>
      <g fill="none" cx="3.96"  cy="7.56" stroke="black" r="1.98" id="41" stroke-width="1.44"/>
      <g fill="none" cx="11.16"  cy="7.56" stroke="black" r="1.98" id="42" stroke-width="1.44"/>
     </g>
    </g>
   </g>
  </g>
  <g partID="47591">
   <g transform="translate(220.136,155.112)">
    <g  id="copper1">
     <g  id="copper0">
      <g width="3.96" x="1.98" y="5.58" fill="none"  height="3.96" stroke="black" id="43" stroke-width="1.44"/>
      <g fill="none" cx="3.96"  cy="7.56" stroke="black" r="1.98" id="44" stroke-width="1.44"/>
      <g fill="none" cx="11.16"  cy="7.56" stroke="black" r="1.98" id="45" stroke-width="1.44"/>
     </g>
    </g>
   </g>
  </g>
  <g partID="44301">
   <g transform="translate(90.1757,174.192)">
    <g transform="matrix(0,-1,1,0,0,0)">
     <g  id="copper1" stroke-width="0">
      <g  id="copper0" stroke-width="0">
       <g width="3.96" x="2.34" y="2.34" fill="none"  height="3.96" stroke="black" id="46" stroke-width="1.44"/>
       <g fill="none" cx="4.32"  cy="4.32" stroke="black" id="47" r="1.98" stroke-width="1.44"/>
       <g fill="none" cx="25.92"  cy="4.32" stroke="black" id="48" r="1.98" stroke-width="1.44"/>
       <g fill="none" cx="4.32"  cy="11.52" stroke="black" id="49" r="1.98" stroke-width="1.44"/>
       <g fill="none" cx="25.92"  cy="11.52" stroke="black" id="50" r="1.98" stroke-width="1.44"/>
       <g fill="none" cx="4.32"  cy="18.72" stroke="black" id="51" r="1.98" stroke-width="1.44"/>
       <g fill="none" cx="25.92"  cy="18.72" stroke="black" id="52" r="1.98" stroke-width="1.44"/>
       <g fill="none" cx="4.32"  cy="25.92" stroke="black" id="53" r="1.98" stroke-width="1.44"/>
       <g fill="none" cx="25.92"  cy="25.92" stroke="black" id="54" r="1.98" stroke-width="1.44"/>
       <g fill="none" cx="4.32"  cy="33.12" stroke="black" id="55" r="1.98" stroke-width="1.44"/>
       <g fill="none" cx="25.92"  cy="33.12" stroke="black" id="56" r="1.98" stroke-width="1.44"/>
       <g fill="none" cx="4.32"  cy="40.32" stroke="black" id="57" r="1.98" stroke-width="1.44"/>
       <g fill="none" cx="25.92"  cy="40.32" stroke="black" id="58" r="1.98" stroke-width="1.44"/>
       <g fill="none" cx="4.32"  cy="47.52" stroke="black" id="59" r="1.98" stroke-width="1.44"/>
       <g fill="none" cx="25.92"  cy="47.52" stroke="black" id="60" r="1.98" stroke-width="1.44"/>
       <g fill="none" cx="4.32"  cy="54.72" stroke="black" id="61" r="1.98" stroke-width="1.44"/>
       <g fill="none" cx="25.92"  cy="54.72" stroke="black" id="62" r="1.98" stroke-width="1.44"/>
       <g fill="none" cx="4.32"  cy="61.92" stroke="black" id="63" r="1.98" stroke-width="1.44"/>
       <g fill="none" cx="25.92"  cy="61.92" stroke="black" id="64" r="1.98" stroke-width="1.44"/>
       <g fill="none" cx="4.32"  cy="69.12" stroke="black" id="65" r="1.98" stroke-width="1.44"/>
       <g fill="none" cx="25.92"  cy="69.12" stroke="black" id="66" r="1.98" stroke-width="1.44"/>
       <g fill="none" cx="4.32"  cy="76.32" stroke="black" id="67" r="1.98" stroke-width="1.44"/>
       <g fill="none" cx="25.92"  cy="76.32" stroke="black" id="68" r="1.98" stroke-width="1.44"/>
       <g fill="none" cx="4.32"  cy="83.52" stroke="black" id="69" r="1.98" stroke-width="1.44"/>
       <g fill="none" cx="25.92"  cy="83.52" stroke="black" id="70" r="1.98" stroke-width="1.44"/>
       <g fill="none" cx="4.32"  cy="90.72" stroke="black" id="71" r="1.98" stroke-width="1.44"/>
       <g fill="none" cx="25.92"  cy="90.72" stroke="black" id="72" r="1.98" stroke-width="1.44"/>
       <g fill="none" cx="4.32"  cy="97.92" stroke="black" id="73" r="1.98" stroke-width="1.44"/>
       <g fill="none" cx="25.92"  cy="97.92" stroke="black" id="74" r="1.98" stroke-width="1.44"/>
      </g>
     </g>
    </g>
   </g>
  </g>
  <g partID="71211">
   <g transform="translate(54.1801,122.356)">
    <g  id="copper1">
     <g fill="none" cx="4.31559"  cy="4.31559" stroke="black" r="1.99559" id="75" stroke-width="1.44"/>
    </g>
   </g>
  </g>
  <g partID="71271">
   <g transform="translate(54.1801,107.956)">
    <g  id="copper1">
     <g fill="none" cx="4.31559"  cy="4.31559" stroke="black" r="1.99559" id="76" stroke-width="1.44"/>
    </g>
   </g>
  </g>
  <g partID="73821">
   <g transform="translate(154.544,121.92)">
    <g  id="copper1">
     <g fill="none" cx="4.752"  cy="4.752" stroke="black" r="1.98" id="77" stroke-width="1.44"/>
     <g fill="none" cx="40.752"  cy="4.752" stroke="black" r="1.98" id="78" stroke-width="1.44"/>
    </g>
   </g>
  </g>
  <g partID="74171">
   <g transform="translate(41.9357,95.7115)">
    <g transform="matrix(-1,0,0,-1,0,0)">
     <g  id="copper1">
      <g  id="copper0">
       <g width="4.176" x="2.952" y="2.952" fill="none"  height="4.176" stroke="black" id="79" stroke-width="1.44"/>
       <g fill="none" cx="5.04"  cy="5.04" stroke="black" id="80" r="2.088" stroke-width="1.44"/>
       <g fill="none" cx="5.04"  cy="12.24" stroke="black" id="81" r="2.088" stroke-width="1.44"/>
       <g fill="none" cx="5.04"  cy="19.44" stroke="black" id="82" r="2.088" stroke-width="1.44"/>
      </g>
     </g>
    </g>
   </g>
  </g>
 </g>
</svg>
