G04 MADE WITH FRITZING*
G04 WWW.FRITZING.ORG*
G04 DOUBLE SIDED*
G04 HOLES PLATED*
G04 CONTOUR ON CENTER OF CONTOUR VECTOR*
%ASAXBY*%
%FSLAX23Y23*%
%MOIN*%
%OFA0B0*%
%SFA1.0B1.0*%
%ADD10C,0.074000*%
%ADD11C,0.085000*%
%ADD12C,0.102000*%
%ADD13C,0.080000*%
%ADD14C,0.080925*%
%ADD15C,0.080866*%
%ADD16C,0.070000*%
%ADD17C,0.140000*%
%ADD18C,0.085433*%
%ADD19C,0.088000*%
%ADD20R,0.074000X0.074000*%
%ADD21R,0.085000X0.085000*%
%ADD22R,0.102000X0.102000*%
%ADD23R,0.088000X0.088000*%
%ADD24R,0.001000X0.001000*%
%LNMASK0*%
G90*
G70*
G54D10*
X2512Y1957D03*
X2512Y2057D03*
X2512Y2157D03*
X2512Y2257D03*
X2512Y2357D03*
X2512Y2457D03*
X2512Y2557D03*
X2512Y2657D03*
G54D11*
X1312Y957D03*
X1312Y1257D03*
X1412Y957D03*
X1412Y1257D03*
X1512Y957D03*
X1512Y1257D03*
X1612Y957D03*
X1612Y1257D03*
X1712Y957D03*
X1712Y1257D03*
X1812Y957D03*
X1812Y1257D03*
X1912Y957D03*
X1912Y1257D03*
X2012Y957D03*
X2012Y1257D03*
X2112Y957D03*
X2112Y1257D03*
X2212Y957D03*
X2212Y1257D03*
X2312Y957D03*
X2312Y1257D03*
X2412Y957D03*
X2412Y1257D03*
X2512Y957D03*
X2512Y1257D03*
X2612Y957D03*
X2612Y1257D03*
X1612Y257D03*
X1212Y257D03*
G54D12*
X1112Y457D03*
X1112Y757D03*
G54D13*
X2212Y257D03*
X2313Y257D03*
X1912Y257D03*
X2013Y257D03*
G54D14*
X2019Y557D03*
G54D15*
X2212Y557D03*
G54D16*
X3412Y1357D03*
X3412Y1257D03*
X3412Y1157D03*
G54D17*
X4002Y1257D03*
G54D11*
X3112Y1557D03*
X3212Y1557D03*
X3112Y1057D03*
X3212Y1057D03*
G54D18*
X812Y1757D03*
X812Y1557D03*
G54D11*
X2212Y1557D03*
X2712Y1557D03*
G54D19*
X512Y2057D03*
X512Y2157D03*
X512Y2257D03*
G54D20*
X2512Y1957D03*
G54D21*
X1312Y957D03*
G54D22*
X1112Y457D03*
G54D21*
X3112Y1557D03*
X3112Y1057D03*
G54D23*
X512Y2057D03*
G54D24*
X3377Y1392D02*
X3446Y1392D01*
X3372Y1391D02*
X3451Y1391D01*
X3370Y1390D02*
X3453Y1390D01*
X3367Y1389D02*
X3456Y1389D01*
X3365Y1388D02*
X3457Y1388D01*
X3364Y1387D02*
X3459Y1387D01*
X3362Y1386D02*
X3461Y1386D01*
X3361Y1385D02*
X3462Y1385D01*
X3360Y1384D02*
X3463Y1384D01*
X3359Y1383D02*
X3464Y1383D01*
X3358Y1382D02*
X3465Y1382D01*
X3357Y1381D02*
X3466Y1381D01*
X3356Y1380D02*
X3467Y1380D01*
X3355Y1379D02*
X3468Y1379D01*
X3354Y1378D02*
X3469Y1378D01*
X3353Y1377D02*
X3470Y1377D01*
X3353Y1376D02*
X3470Y1376D01*
X3352Y1375D02*
X3471Y1375D01*
X3351Y1374D02*
X3471Y1374D01*
X3351Y1373D02*
X3472Y1373D01*
X3350Y1372D02*
X3407Y1372D01*
X3416Y1372D02*
X3473Y1372D01*
X3350Y1371D02*
X3404Y1371D01*
X3419Y1371D02*
X3473Y1371D01*
X3349Y1370D02*
X3402Y1370D01*
X3421Y1370D02*
X3473Y1370D01*
X3349Y1369D02*
X3401Y1369D01*
X3422Y1369D02*
X3474Y1369D01*
X3349Y1368D02*
X3400Y1368D01*
X3423Y1368D02*
X3474Y1368D01*
X3348Y1367D02*
X3399Y1367D01*
X3424Y1367D02*
X3474Y1367D01*
X3348Y1366D02*
X3398Y1366D01*
X3425Y1366D02*
X3475Y1366D01*
X3348Y1365D02*
X3398Y1365D01*
X3425Y1365D02*
X3475Y1365D01*
X3348Y1364D02*
X3397Y1364D01*
X3426Y1364D02*
X3475Y1364D01*
X3347Y1363D02*
X3397Y1363D01*
X3426Y1363D02*
X3475Y1363D01*
X3347Y1362D02*
X3397Y1362D01*
X3426Y1362D02*
X3476Y1362D01*
X3347Y1361D02*
X3396Y1361D01*
X3427Y1361D02*
X3476Y1361D01*
X3347Y1360D02*
X3396Y1360D01*
X3427Y1360D02*
X3476Y1360D01*
X3347Y1359D02*
X3396Y1359D01*
X3427Y1359D02*
X3476Y1359D01*
X3347Y1358D02*
X3396Y1358D01*
X3427Y1358D02*
X3476Y1358D01*
X3347Y1357D02*
X3396Y1357D01*
X3427Y1357D02*
X3476Y1357D01*
X3347Y1356D02*
X3396Y1356D01*
X3427Y1356D02*
X3476Y1356D01*
X3347Y1355D02*
X3396Y1355D01*
X3427Y1355D02*
X3476Y1355D01*
X3347Y1354D02*
X3396Y1354D01*
X3427Y1354D02*
X3476Y1354D01*
X3347Y1353D02*
X3397Y1353D01*
X3426Y1353D02*
X3476Y1353D01*
X3347Y1352D02*
X3397Y1352D01*
X3426Y1352D02*
X3475Y1352D01*
X3348Y1351D02*
X3397Y1351D01*
X3426Y1351D02*
X3475Y1351D01*
X3348Y1350D02*
X3398Y1350D01*
X3425Y1350D02*
X3475Y1350D01*
X3348Y1349D02*
X3398Y1349D01*
X3425Y1349D02*
X3475Y1349D01*
X3348Y1348D02*
X3399Y1348D01*
X3424Y1348D02*
X3475Y1348D01*
X3349Y1347D02*
X3400Y1347D01*
X3423Y1347D02*
X3474Y1347D01*
X3349Y1346D02*
X3401Y1346D01*
X3422Y1346D02*
X3474Y1346D01*
X3349Y1345D02*
X3402Y1345D01*
X3421Y1345D02*
X3473Y1345D01*
X3350Y1344D02*
X3404Y1344D01*
X3419Y1344D02*
X3473Y1344D01*
X3350Y1343D02*
X3407Y1343D01*
X3416Y1343D02*
X3473Y1343D01*
X3351Y1342D02*
X3472Y1342D01*
X3351Y1341D02*
X3472Y1341D01*
X3352Y1340D02*
X3471Y1340D01*
X3353Y1339D02*
X3470Y1339D01*
X3353Y1338D02*
X3470Y1338D01*
X3354Y1337D02*
X3469Y1337D01*
X3355Y1336D02*
X3468Y1336D01*
X3356Y1335D02*
X3467Y1335D01*
X3356Y1334D02*
X3466Y1334D01*
X3357Y1333D02*
X3465Y1333D01*
X3358Y1332D02*
X3464Y1332D01*
X3360Y1331D02*
X3463Y1331D01*
X3361Y1330D02*
X3462Y1330D01*
X3362Y1329D02*
X3461Y1329D01*
X3364Y1328D02*
X3459Y1328D01*
X3365Y1327D02*
X3458Y1327D01*
X3367Y1326D02*
X3456Y1326D01*
X3369Y1325D02*
X3454Y1325D01*
X3372Y1324D02*
X3451Y1324D01*
X3376Y1323D02*
X3447Y1323D01*
X3376Y1292D02*
X3446Y1292D01*
X3372Y1291D02*
X3451Y1291D01*
X3369Y1290D02*
X3453Y1290D01*
X3367Y1289D02*
X3456Y1289D01*
X3365Y1288D02*
X3458Y1288D01*
X3364Y1287D02*
X3459Y1287D01*
X3362Y1286D02*
X3461Y1286D01*
X3361Y1285D02*
X3462Y1285D01*
X3360Y1284D02*
X3463Y1284D01*
X3359Y1283D02*
X3464Y1283D01*
X3357Y1282D02*
X3465Y1282D01*
X3357Y1281D02*
X3466Y1281D01*
X3356Y1280D02*
X3467Y1280D01*
X3355Y1279D02*
X3468Y1279D01*
X3354Y1278D02*
X3469Y1278D01*
X3353Y1277D02*
X3470Y1277D01*
X3353Y1276D02*
X3470Y1276D01*
X3352Y1275D02*
X3471Y1275D01*
X3351Y1274D02*
X3471Y1274D01*
X3351Y1273D02*
X3472Y1273D01*
X3350Y1272D02*
X3407Y1272D01*
X3416Y1272D02*
X3473Y1272D01*
X3350Y1271D02*
X3404Y1271D01*
X3419Y1271D02*
X3473Y1271D01*
X3349Y1270D02*
X3402Y1270D01*
X3421Y1270D02*
X3473Y1270D01*
X3349Y1269D02*
X3401Y1269D01*
X3422Y1269D02*
X3474Y1269D01*
X3349Y1268D02*
X3400Y1268D01*
X3423Y1268D02*
X3474Y1268D01*
X3348Y1267D02*
X3399Y1267D01*
X3424Y1267D02*
X3474Y1267D01*
X3348Y1266D02*
X3398Y1266D01*
X3425Y1266D02*
X3475Y1266D01*
X3348Y1265D02*
X3398Y1265D01*
X3425Y1265D02*
X3475Y1265D01*
X3348Y1264D02*
X3397Y1264D01*
X3426Y1264D02*
X3475Y1264D01*
X3347Y1263D02*
X3397Y1263D01*
X3426Y1263D02*
X3475Y1263D01*
X3347Y1262D02*
X3397Y1262D01*
X3426Y1262D02*
X3476Y1262D01*
X3347Y1261D02*
X3396Y1261D01*
X3427Y1261D02*
X3476Y1261D01*
X3347Y1260D02*
X3396Y1260D01*
X3427Y1260D02*
X3476Y1260D01*
X3347Y1259D02*
X3396Y1259D01*
X3427Y1259D02*
X3476Y1259D01*
X3347Y1258D02*
X3396Y1258D01*
X3427Y1258D02*
X3476Y1258D01*
X3347Y1257D02*
X3396Y1257D01*
X3427Y1257D02*
X3476Y1257D01*
X3347Y1256D02*
X3396Y1256D01*
X3427Y1256D02*
X3476Y1256D01*
X3347Y1255D02*
X3396Y1255D01*
X3427Y1255D02*
X3476Y1255D01*
X3347Y1254D02*
X3396Y1254D01*
X3427Y1254D02*
X3476Y1254D01*
X3347Y1253D02*
X3397Y1253D01*
X3426Y1253D02*
X3476Y1253D01*
X3347Y1252D02*
X3397Y1252D01*
X3426Y1252D02*
X3475Y1252D01*
X3348Y1251D02*
X3397Y1251D01*
X3426Y1251D02*
X3475Y1251D01*
X3348Y1250D02*
X3398Y1250D01*
X3425Y1250D02*
X3475Y1250D01*
X3348Y1249D02*
X3398Y1249D01*
X3425Y1249D02*
X3475Y1249D01*
X3348Y1248D02*
X3399Y1248D01*
X3424Y1248D02*
X3475Y1248D01*
X3349Y1247D02*
X3400Y1247D01*
X3423Y1247D02*
X3474Y1247D01*
X3349Y1246D02*
X3401Y1246D01*
X3422Y1246D02*
X3474Y1246D01*
X3349Y1245D02*
X3402Y1245D01*
X3421Y1245D02*
X3473Y1245D01*
X3350Y1244D02*
X3404Y1244D01*
X3419Y1244D02*
X3473Y1244D01*
X3350Y1243D02*
X3407Y1243D01*
X3416Y1243D02*
X3473Y1243D01*
X3351Y1242D02*
X3472Y1242D01*
X3351Y1241D02*
X3472Y1241D01*
X3352Y1240D02*
X3471Y1240D01*
X3353Y1239D02*
X3470Y1239D01*
X3353Y1238D02*
X3470Y1238D01*
X3354Y1237D02*
X3469Y1237D01*
X3355Y1236D02*
X3468Y1236D01*
X3356Y1235D02*
X3467Y1235D01*
X3356Y1234D02*
X3466Y1234D01*
X3357Y1233D02*
X3465Y1233D01*
X3358Y1232D02*
X3464Y1232D01*
X3360Y1231D02*
X3463Y1231D01*
X3361Y1230D02*
X3462Y1230D01*
X3362Y1229D02*
X3461Y1229D01*
X3364Y1228D02*
X3459Y1228D01*
X3365Y1227D02*
X3458Y1227D01*
X3367Y1226D02*
X3456Y1226D01*
X3369Y1225D02*
X3453Y1225D01*
X3372Y1224D02*
X3451Y1224D01*
X3376Y1223D02*
X3447Y1223D01*
X3376Y1192D02*
X3447Y1192D01*
X3372Y1191D02*
X3451Y1191D01*
X3369Y1190D02*
X3453Y1190D01*
X3367Y1189D02*
X3456Y1189D01*
X3365Y1188D02*
X3458Y1188D01*
X3364Y1187D02*
X3459Y1187D01*
X3362Y1186D02*
X3461Y1186D01*
X3361Y1185D02*
X3462Y1185D01*
X3360Y1184D02*
X3463Y1184D01*
X3359Y1183D02*
X3464Y1183D01*
X3357Y1182D02*
X3465Y1182D01*
X3357Y1181D02*
X3466Y1181D01*
X3356Y1180D02*
X3467Y1180D01*
X3355Y1179D02*
X3468Y1179D01*
X3354Y1178D02*
X3469Y1178D01*
X3353Y1177D02*
X3470Y1177D01*
X3353Y1176D02*
X3470Y1176D01*
X3352Y1175D02*
X3471Y1175D01*
X3351Y1174D02*
X3471Y1174D01*
X3351Y1173D02*
X3472Y1173D01*
X3350Y1172D02*
X3407Y1172D01*
X3416Y1172D02*
X3473Y1172D01*
X3350Y1171D02*
X3404Y1171D01*
X3419Y1171D02*
X3473Y1171D01*
X3349Y1170D02*
X3402Y1170D01*
X3421Y1170D02*
X3473Y1170D01*
X3349Y1169D02*
X3401Y1169D01*
X3422Y1169D02*
X3474Y1169D01*
X3349Y1168D02*
X3400Y1168D01*
X3423Y1168D02*
X3474Y1168D01*
X3348Y1167D02*
X3399Y1167D01*
X3424Y1167D02*
X3475Y1167D01*
X3348Y1166D02*
X3398Y1166D01*
X3425Y1166D02*
X3475Y1166D01*
X3348Y1165D02*
X3398Y1165D01*
X3425Y1165D02*
X3475Y1165D01*
X3348Y1164D02*
X3397Y1164D01*
X3426Y1164D02*
X3475Y1164D01*
X3347Y1163D02*
X3397Y1163D01*
X3426Y1163D02*
X3475Y1163D01*
X3347Y1162D02*
X3397Y1162D01*
X3426Y1162D02*
X3476Y1162D01*
X3347Y1161D02*
X3396Y1161D01*
X3427Y1161D02*
X3476Y1161D01*
X3347Y1160D02*
X3396Y1160D01*
X3427Y1160D02*
X3476Y1160D01*
X3347Y1159D02*
X3396Y1159D01*
X3427Y1159D02*
X3476Y1159D01*
X3347Y1158D02*
X3396Y1158D01*
X3427Y1158D02*
X3476Y1158D01*
X3347Y1157D02*
X3396Y1157D01*
X3427Y1157D02*
X3476Y1157D01*
X3347Y1156D02*
X3396Y1156D01*
X3427Y1156D02*
X3476Y1156D01*
X3347Y1155D02*
X3396Y1155D01*
X3427Y1155D02*
X3476Y1155D01*
X3347Y1154D02*
X3396Y1154D01*
X3427Y1154D02*
X3476Y1154D01*
X3347Y1153D02*
X3397Y1153D01*
X3426Y1153D02*
X3476Y1153D01*
X3347Y1152D02*
X3397Y1152D01*
X3426Y1152D02*
X3475Y1152D01*
X3348Y1151D02*
X3397Y1151D01*
X3426Y1151D02*
X3475Y1151D01*
X3348Y1150D02*
X3398Y1150D01*
X3425Y1150D02*
X3475Y1150D01*
X3348Y1149D02*
X3398Y1149D01*
X3425Y1149D02*
X3475Y1149D01*
X3348Y1148D02*
X3399Y1148D01*
X3424Y1148D02*
X3475Y1148D01*
X3349Y1147D02*
X3400Y1147D01*
X3423Y1147D02*
X3474Y1147D01*
X3349Y1146D02*
X3401Y1146D01*
X3422Y1146D02*
X3474Y1146D01*
X3349Y1145D02*
X3402Y1145D01*
X3421Y1145D02*
X3473Y1145D01*
X3350Y1144D02*
X3404Y1144D01*
X3419Y1144D02*
X3473Y1144D01*
X3350Y1143D02*
X3407Y1143D01*
X3416Y1143D02*
X3473Y1143D01*
X3351Y1142D02*
X3472Y1142D01*
X3351Y1141D02*
X3471Y1141D01*
X3352Y1140D02*
X3471Y1140D01*
X3353Y1139D02*
X3470Y1139D01*
X3353Y1138D02*
X3470Y1138D01*
X3354Y1137D02*
X3469Y1137D01*
X3355Y1136D02*
X3468Y1136D01*
X3356Y1135D02*
X3467Y1135D01*
X3357Y1134D02*
X3466Y1134D01*
X3357Y1133D02*
X3465Y1133D01*
X3359Y1132D02*
X3464Y1132D01*
X3360Y1131D02*
X3463Y1131D01*
X3361Y1130D02*
X3462Y1130D01*
X3362Y1129D02*
X3461Y1129D01*
X3364Y1128D02*
X3459Y1128D01*
X3365Y1127D02*
X3458Y1127D01*
X3367Y1126D02*
X3456Y1126D01*
X3369Y1125D02*
X3453Y1125D01*
X3372Y1124D02*
X3451Y1124D01*
X3376Y1123D02*
X3447Y1123D01*
D02*
G04 End of Mask0*
M02*