G04 MADE WITH FRITZING*
G04 WWW.FRITZING.ORG*
G04 DOUBLE SIDED*
G04 HOLES PLATED*
G04 CONTOUR ON CENTER OF CONTOUR VECTOR*
%ASAXBY*%
%FSLAX23Y23*%
%MOIN*%
%OFA0B0*%
%SFA1.0B1.0*%
%ADD10C,0.064000*%
%ADD11C,0.075000*%
%ADD12C,0.092000*%
%ADD13C,0.070000*%
%ADD14C,0.070925*%
%ADD15C,0.070866*%
%ADD16C,0.060000*%
%ADD17C,0.075433*%
%ADD18C,0.078000*%
%ADD19R,0.064000X0.064000*%
%ADD20R,0.075000X0.075000*%
%ADD21R,0.092000X0.092000*%
%ADD22R,0.078000X0.078000*%
%ADD23R,0.001000X0.001000*%
%LNCOPPER0*%
G90*
G70*
G54D10*
X2512Y1957D03*
X2512Y2057D03*
X2512Y2157D03*
X2512Y2257D03*
X2512Y2357D03*
X2512Y2457D03*
X2512Y2557D03*
X2512Y2657D03*
G54D11*
X1312Y957D03*
X1312Y1257D03*
X1412Y957D03*
X1412Y1257D03*
X1512Y957D03*
X1512Y1257D03*
X1612Y957D03*
X1612Y1257D03*
X1712Y957D03*
X1712Y1257D03*
X1812Y957D03*
X1812Y1257D03*
X1912Y957D03*
X1912Y1257D03*
X2012Y957D03*
X2012Y1257D03*
X2112Y957D03*
X2112Y1257D03*
X2212Y957D03*
X2212Y1257D03*
X2312Y957D03*
X2312Y1257D03*
X2412Y957D03*
X2412Y1257D03*
X2512Y957D03*
X2512Y1257D03*
X2612Y957D03*
X2612Y1257D03*
X1612Y257D03*
X1212Y257D03*
G54D12*
X1112Y457D03*
X1112Y757D03*
G54D13*
X2212Y257D03*
X2313Y257D03*
X1912Y257D03*
X2013Y257D03*
G54D14*
X2019Y557D03*
G54D15*
X2212Y557D03*
G54D16*
X3412Y1357D03*
X3412Y1257D03*
X3412Y1157D03*
G54D11*
X3112Y1557D03*
X3212Y1557D03*
X3112Y1057D03*
X3212Y1057D03*
G54D17*
X812Y1757D03*
X812Y1557D03*
G54D11*
X2212Y1557D03*
X2712Y1557D03*
G54D18*
X512Y2057D03*
X512Y2157D03*
X512Y2257D03*
G54D19*
X2512Y1957D03*
G54D20*
X1312Y957D03*
G54D21*
X1112Y457D03*
G54D20*
X3112Y1557D03*
X3112Y1057D03*
G54D22*
X512Y2057D03*
G54D23*
X3377Y1387D02*
X3446Y1387D01*
X3373Y1386D02*
X3450Y1386D01*
X3370Y1385D02*
X3453Y1385D01*
X3368Y1384D02*
X3455Y1384D01*
X3366Y1383D02*
X3457Y1383D01*
X3365Y1382D02*
X3458Y1382D01*
X3363Y1381D02*
X3460Y1381D01*
X3362Y1380D02*
X3461Y1380D01*
X3361Y1379D02*
X3462Y1379D01*
X3360Y1378D02*
X3463Y1378D01*
X3359Y1377D02*
X3407Y1377D01*
X3416Y1377D02*
X3464Y1377D01*
X3358Y1376D02*
X3403Y1376D01*
X3419Y1376D02*
X3465Y1376D01*
X3358Y1375D02*
X3401Y1375D01*
X3422Y1375D02*
X3465Y1375D01*
X3357Y1374D02*
X3400Y1374D01*
X3423Y1374D02*
X3466Y1374D01*
X3356Y1373D02*
X3398Y1373D01*
X3425Y1373D02*
X3467Y1373D01*
X3356Y1372D02*
X3397Y1372D01*
X3426Y1372D02*
X3467Y1372D01*
X3355Y1371D02*
X3396Y1371D01*
X3427Y1371D02*
X3468Y1371D01*
X3355Y1370D02*
X3395Y1370D01*
X3428Y1370D02*
X3468Y1370D01*
X3354Y1369D02*
X3395Y1369D01*
X3428Y1369D02*
X3469Y1369D01*
X3354Y1368D02*
X3394Y1368D01*
X3429Y1368D02*
X3469Y1368D01*
X3353Y1367D02*
X3393Y1367D01*
X3430Y1367D02*
X3469Y1367D01*
X3353Y1366D02*
X3393Y1366D01*
X3430Y1366D02*
X3470Y1366D01*
X3353Y1365D02*
X3392Y1365D01*
X3430Y1365D02*
X3470Y1365D01*
X3353Y1364D02*
X3392Y1364D01*
X3431Y1364D02*
X3470Y1364D01*
X3352Y1363D02*
X3392Y1363D01*
X3431Y1363D02*
X3470Y1363D01*
X3352Y1362D02*
X3391Y1362D01*
X3431Y1362D02*
X3471Y1362D01*
X3352Y1361D02*
X3391Y1361D01*
X3432Y1361D02*
X3471Y1361D01*
X3352Y1360D02*
X3391Y1360D01*
X3432Y1360D02*
X3471Y1360D01*
X3352Y1359D02*
X3391Y1359D01*
X3432Y1359D02*
X3471Y1359D01*
X3352Y1358D02*
X3391Y1358D01*
X3432Y1358D02*
X3471Y1358D01*
X3352Y1357D02*
X3391Y1357D01*
X3432Y1357D02*
X3471Y1357D01*
X3352Y1356D02*
X3391Y1356D01*
X3432Y1356D02*
X3471Y1356D01*
X3352Y1355D02*
X3391Y1355D01*
X3432Y1355D02*
X3471Y1355D01*
X3352Y1354D02*
X3391Y1354D01*
X3432Y1354D02*
X3471Y1354D01*
X3352Y1353D02*
X3391Y1353D01*
X3431Y1353D02*
X3471Y1353D01*
X3352Y1352D02*
X3392Y1352D01*
X3431Y1352D02*
X3470Y1352D01*
X3353Y1351D02*
X3392Y1351D01*
X3431Y1351D02*
X3470Y1351D01*
X3353Y1350D02*
X3392Y1350D01*
X3430Y1350D02*
X3470Y1350D01*
X3353Y1349D02*
X3393Y1349D01*
X3430Y1349D02*
X3470Y1349D01*
X3353Y1348D02*
X3393Y1348D01*
X3430Y1348D02*
X3469Y1348D01*
X3354Y1347D02*
X3394Y1347D01*
X3429Y1347D02*
X3469Y1347D01*
X3354Y1346D02*
X3395Y1346D01*
X3428Y1346D02*
X3469Y1346D01*
X3355Y1345D02*
X3395Y1345D01*
X3428Y1345D02*
X3468Y1345D01*
X3355Y1344D02*
X3396Y1344D01*
X3427Y1344D02*
X3468Y1344D01*
X3356Y1343D02*
X3397Y1343D01*
X3426Y1343D02*
X3467Y1343D01*
X3356Y1342D02*
X3398Y1342D01*
X3425Y1342D02*
X3467Y1342D01*
X3357Y1341D02*
X3400Y1341D01*
X3423Y1341D02*
X3466Y1341D01*
X3358Y1340D02*
X3401Y1340D01*
X3422Y1340D02*
X3465Y1340D01*
X3358Y1339D02*
X3403Y1339D01*
X3420Y1339D02*
X3465Y1339D01*
X3359Y1338D02*
X3406Y1338D01*
X3416Y1338D02*
X3464Y1338D01*
X3360Y1337D02*
X3463Y1337D01*
X3361Y1336D02*
X3462Y1336D01*
X3362Y1335D02*
X3461Y1335D01*
X3363Y1334D02*
X3460Y1334D01*
X3365Y1333D02*
X3458Y1333D01*
X3366Y1332D02*
X3457Y1332D01*
X3368Y1331D02*
X3455Y1331D01*
X3370Y1330D02*
X3453Y1330D01*
X3372Y1329D02*
X3450Y1329D01*
X3376Y1328D02*
X3447Y1328D01*
X3377Y1287D02*
X3446Y1287D01*
X3373Y1286D02*
X3450Y1286D01*
X3370Y1285D02*
X3453Y1285D01*
X3368Y1284D02*
X3455Y1284D01*
X3366Y1283D02*
X3457Y1283D01*
X3365Y1282D02*
X3458Y1282D01*
X3363Y1281D02*
X3460Y1281D01*
X3362Y1280D02*
X3461Y1280D01*
X3361Y1279D02*
X3462Y1279D01*
X3360Y1278D02*
X3463Y1278D01*
X3359Y1277D02*
X3407Y1277D01*
X3416Y1277D02*
X3464Y1277D01*
X3358Y1276D02*
X3403Y1276D01*
X3419Y1276D02*
X3465Y1276D01*
X3358Y1275D02*
X3401Y1275D01*
X3422Y1275D02*
X3465Y1275D01*
X3357Y1274D02*
X3400Y1274D01*
X3423Y1274D02*
X3466Y1274D01*
X3356Y1273D02*
X3398Y1273D01*
X3425Y1273D02*
X3467Y1273D01*
X3356Y1272D02*
X3397Y1272D01*
X3426Y1272D02*
X3467Y1272D01*
X3355Y1271D02*
X3396Y1271D01*
X3427Y1271D02*
X3468Y1271D01*
X3355Y1270D02*
X3395Y1270D01*
X3428Y1270D02*
X3468Y1270D01*
X3354Y1269D02*
X3395Y1269D01*
X3428Y1269D02*
X3469Y1269D01*
X3354Y1268D02*
X3394Y1268D01*
X3429Y1268D02*
X3469Y1268D01*
X3353Y1267D02*
X3393Y1267D01*
X3430Y1267D02*
X3469Y1267D01*
X3353Y1266D02*
X3393Y1266D01*
X3430Y1266D02*
X3470Y1266D01*
X3353Y1265D02*
X3392Y1265D01*
X3430Y1265D02*
X3470Y1265D01*
X3353Y1264D02*
X3392Y1264D01*
X3431Y1264D02*
X3470Y1264D01*
X3352Y1263D02*
X3392Y1263D01*
X3431Y1263D02*
X3470Y1263D01*
X3352Y1262D02*
X3391Y1262D01*
X3431Y1262D02*
X3471Y1262D01*
X3352Y1261D02*
X3391Y1261D01*
X3432Y1261D02*
X3471Y1261D01*
X3352Y1260D02*
X3391Y1260D01*
X3432Y1260D02*
X3471Y1260D01*
X3352Y1259D02*
X3391Y1259D01*
X3432Y1259D02*
X3471Y1259D01*
X3352Y1258D02*
X3391Y1258D01*
X3432Y1258D02*
X3471Y1258D01*
X3352Y1257D02*
X3391Y1257D01*
X3432Y1257D02*
X3471Y1257D01*
X3352Y1256D02*
X3391Y1256D01*
X3432Y1256D02*
X3471Y1256D01*
X3352Y1255D02*
X3391Y1255D01*
X3432Y1255D02*
X3471Y1255D01*
X3352Y1254D02*
X3391Y1254D01*
X3432Y1254D02*
X3471Y1254D01*
X3352Y1253D02*
X3391Y1253D01*
X3431Y1253D02*
X3471Y1253D01*
X3352Y1252D02*
X3392Y1252D01*
X3431Y1252D02*
X3470Y1252D01*
X3353Y1251D02*
X3392Y1251D01*
X3431Y1251D02*
X3470Y1251D01*
X3353Y1250D02*
X3392Y1250D01*
X3430Y1250D02*
X3470Y1250D01*
X3353Y1249D02*
X3393Y1249D01*
X3430Y1249D02*
X3470Y1249D01*
X3353Y1248D02*
X3393Y1248D01*
X3430Y1248D02*
X3469Y1248D01*
X3354Y1247D02*
X3394Y1247D01*
X3429Y1247D02*
X3469Y1247D01*
X3354Y1246D02*
X3395Y1246D01*
X3428Y1246D02*
X3469Y1246D01*
X3355Y1245D02*
X3395Y1245D01*
X3428Y1245D02*
X3468Y1245D01*
X3355Y1244D02*
X3396Y1244D01*
X3427Y1244D02*
X3468Y1244D01*
X3356Y1243D02*
X3397Y1243D01*
X3426Y1243D02*
X3467Y1243D01*
X3356Y1242D02*
X3398Y1242D01*
X3425Y1242D02*
X3467Y1242D01*
X3357Y1241D02*
X3400Y1241D01*
X3423Y1241D02*
X3466Y1241D01*
X3358Y1240D02*
X3401Y1240D01*
X3422Y1240D02*
X3465Y1240D01*
X3358Y1239D02*
X3403Y1239D01*
X3420Y1239D02*
X3465Y1239D01*
X3359Y1238D02*
X3406Y1238D01*
X3416Y1238D02*
X3464Y1238D01*
X3360Y1237D02*
X3463Y1237D01*
X3361Y1236D02*
X3462Y1236D01*
X3362Y1235D02*
X3461Y1235D01*
X3363Y1234D02*
X3460Y1234D01*
X3365Y1233D02*
X3458Y1233D01*
X3366Y1232D02*
X3457Y1232D01*
X3368Y1231D02*
X3455Y1231D01*
X3370Y1230D02*
X3453Y1230D01*
X3373Y1229D02*
X3450Y1229D01*
X3376Y1228D02*
X3446Y1228D01*
X3377Y1187D02*
X3446Y1187D01*
X3373Y1186D02*
X3450Y1186D01*
X3370Y1185D02*
X3453Y1185D01*
X3368Y1184D02*
X3455Y1184D01*
X3366Y1183D02*
X3457Y1183D01*
X3365Y1182D02*
X3458Y1182D01*
X3363Y1181D02*
X3460Y1181D01*
X3362Y1180D02*
X3461Y1180D01*
X3361Y1179D02*
X3462Y1179D01*
X3360Y1178D02*
X3463Y1178D01*
X3359Y1177D02*
X3407Y1177D01*
X3416Y1177D02*
X3464Y1177D01*
X3358Y1176D02*
X3403Y1176D01*
X3420Y1176D02*
X3465Y1176D01*
X3358Y1175D02*
X3401Y1175D01*
X3422Y1175D02*
X3465Y1175D01*
X3357Y1174D02*
X3400Y1174D01*
X3423Y1174D02*
X3466Y1174D01*
X3356Y1173D02*
X3398Y1173D01*
X3425Y1173D02*
X3467Y1173D01*
X3356Y1172D02*
X3397Y1172D01*
X3426Y1172D02*
X3467Y1172D01*
X3355Y1171D02*
X3396Y1171D01*
X3427Y1171D02*
X3468Y1171D01*
X3355Y1170D02*
X3395Y1170D01*
X3428Y1170D02*
X3468Y1170D01*
X3354Y1169D02*
X3395Y1169D01*
X3428Y1169D02*
X3469Y1169D01*
X3354Y1168D02*
X3394Y1168D01*
X3429Y1168D02*
X3469Y1168D01*
X3353Y1167D02*
X3393Y1167D01*
X3430Y1167D02*
X3469Y1167D01*
X3353Y1166D02*
X3393Y1166D01*
X3430Y1166D02*
X3470Y1166D01*
X3353Y1165D02*
X3392Y1165D01*
X3430Y1165D02*
X3470Y1165D01*
X3353Y1164D02*
X3392Y1164D01*
X3431Y1164D02*
X3470Y1164D01*
X3352Y1163D02*
X3392Y1163D01*
X3431Y1163D02*
X3470Y1163D01*
X3352Y1162D02*
X3391Y1162D01*
X3431Y1162D02*
X3471Y1162D01*
X3352Y1161D02*
X3391Y1161D01*
X3432Y1161D02*
X3471Y1161D01*
X3352Y1160D02*
X3391Y1160D01*
X3432Y1160D02*
X3471Y1160D01*
X3352Y1159D02*
X3391Y1159D01*
X3432Y1159D02*
X3471Y1159D01*
X3352Y1158D02*
X3391Y1158D01*
X3432Y1158D02*
X3471Y1158D01*
X3352Y1157D02*
X3391Y1157D01*
X3432Y1157D02*
X3471Y1157D01*
X3352Y1156D02*
X3391Y1156D01*
X3432Y1156D02*
X3471Y1156D01*
X3352Y1155D02*
X3391Y1155D01*
X3432Y1155D02*
X3471Y1155D01*
X3352Y1154D02*
X3391Y1154D01*
X3432Y1154D02*
X3471Y1154D01*
X3352Y1153D02*
X3391Y1153D01*
X3431Y1153D02*
X3471Y1153D01*
X3352Y1152D02*
X3392Y1152D01*
X3431Y1152D02*
X3470Y1152D01*
X3353Y1151D02*
X3392Y1151D01*
X3431Y1151D02*
X3470Y1151D01*
X3353Y1150D02*
X3392Y1150D01*
X3430Y1150D02*
X3470Y1150D01*
X3353Y1149D02*
X3393Y1149D01*
X3430Y1149D02*
X3470Y1149D01*
X3353Y1148D02*
X3393Y1148D01*
X3430Y1148D02*
X3469Y1148D01*
X3354Y1147D02*
X3394Y1147D01*
X3429Y1147D02*
X3469Y1147D01*
X3354Y1146D02*
X3395Y1146D01*
X3428Y1146D02*
X3469Y1146D01*
X3355Y1145D02*
X3395Y1145D01*
X3428Y1145D02*
X3468Y1145D01*
X3355Y1144D02*
X3396Y1144D01*
X3427Y1144D02*
X3468Y1144D01*
X3356Y1143D02*
X3397Y1143D01*
X3426Y1143D02*
X3467Y1143D01*
X3356Y1142D02*
X3398Y1142D01*
X3425Y1142D02*
X3467Y1142D01*
X3357Y1141D02*
X3400Y1141D01*
X3423Y1141D02*
X3466Y1141D01*
X3358Y1140D02*
X3401Y1140D01*
X3422Y1140D02*
X3465Y1140D01*
X3358Y1139D02*
X3403Y1139D01*
X3420Y1139D02*
X3465Y1139D01*
X3359Y1138D02*
X3407Y1138D01*
X3416Y1138D02*
X3464Y1138D01*
X3360Y1137D02*
X3463Y1137D01*
X3361Y1136D02*
X3462Y1136D01*
X3362Y1135D02*
X3461Y1135D01*
X3363Y1134D02*
X3460Y1134D01*
X3365Y1133D02*
X3458Y1133D01*
X3366Y1132D02*
X3457Y1132D01*
X3368Y1131D02*
X3455Y1131D01*
X3370Y1130D02*
X3453Y1130D01*
X3373Y1129D02*
X3450Y1129D01*
X3377Y1128D02*
X3446Y1128D01*
D02*
G04 End of Copper0*
M02*