M48
INCH
T10C0.040000
T11C0.035000
T12C0.052000
T13C0.030000
T14C0.031555
T15C0.031496
T16C0.130000
T17C0.035433
T18C0.038000
%
T10
X029124Y007571
X029124Y006571
X029124Y005571
X029124Y004571
X029124Y003571
X029124Y002571
X034124Y011571
X034124Y012571
X034124Y013571
X025124Y026571
X025124Y025571
X025124Y024571
X025124Y023571
X025124Y022571
X025124Y021571
X025124Y020571
X025124Y019571
T11
X027124Y015571
X022124Y015571
X032124Y010571
X031124Y010571
X032124Y015571
X031124Y015571
X012124Y002571
X016124Y002571
X026124Y012571
X026124Y009571
X025124Y012571
X025124Y009571
X024124Y012571
X024124Y009571
X023124Y012571
X023124Y009571
X022124Y012571
X022124Y009571
X021124Y012571
X021124Y009571
X020124Y012571
X020124Y009571
X019124Y012571
X019124Y009571
X018124Y012571
X018124Y009571
X017124Y012571
X017124Y009571
X016124Y012571
X016124Y009571
X015124Y012571
X015124Y009571
X014124Y012571
X014124Y009571
X013124Y012571
X013124Y009571
T12
X011124Y007571
X011124Y004571
T13
X020126Y002571
X019124Y002571
X023126Y002571
X022124Y002571
T14
X020193Y005571
T15
X022124Y005571
T16
X040024Y012571
T17
X008124Y015571
X008124Y017571
T18
X005124Y022571
X005124Y021571
X005124Y020571
T00
M30
